# Made in Blockbench 4.10.3
mtllib model.mtl

o cube
v 1 1 1
v 1 1 -1
v 1 -1 1
v 1 -1 -1
v -1 1 -1
v -1 1 1
v -1 -1 -1
v -1 -1 1
vt 0 1
vt 1 1
vt 1 0
vt 0 0
vt 0 1
vt 1 1
vt 1 0
vt 0 0
vt 0 1
vt 1 1
vt 1 0
vt 0 0
vt 0 1
vt 1 1
vt 1 0
vt 0 0
vt 0 1
vt 1 1
vt 1 0
vt 0 0
vt 0 1
vt 1 1
vt 1 0
vt 0 0
vn 0 0 -1
vn 1 0 0
vn 0 0 1
vn -1 0 0
vn 0 1 0
vn 0 -1 0
usemtl m_b2ce2f43-7f72-4bc6-bdfe-0991452e9439
f 4/4/1 7/3/1 5/2/1 2/1/1
f 3/8/2 4/7/2 2/6/2 1/5/2
f 8/12/3 3/11/3 1/10/3 6/9/3
f 7/16/4 8/15/4 6/14/4 5/13/4
f 6/20/5 1/19/5 2/18/5 5/17/5
f 7/24/6 4/23/6 3/22/6 8/21/6
o sphere
v 3.265361837132812e-18 1 3.2653618371328145e-18
v 3.265361837132812e-18 2 3.2653618371328145e-18
v 0.13397459621556124 1.9330127018922194 0.5
v 0.23205080756887722 1.75 0.8660254037844389
v 0.26794919243112253 1.5 1.0000000000000002
v 0.23205080756887728 1.25 0.866025403784439
v 0.13397459621556124 1.0669872981077806 0.5
v 0.3660254037844383 1.9330127018922194 0.3660254037844385
v 0.6339745962155607 1.75 0.6339745962155612
v 0.7320508075688766 1.5 0.7320508075688771
v 0.6339745962155607 1.25 0.6339745962155612
v 0.3660254037844383 1.0669872981077806 0.3660254037844385
v 0.5 1.9330127018922194 0.13397459621556132
v 0.8660254037844387 1.75 0.23205080756887725
v 1.0000000000000002 1.5 0.2679491924311227
v 0.8660254037844387 1.25 0.23205080756887728
v 0.5 1.0669872981077806 0.13397459621556132
v 0.5 1.9330127018922194 -0.13397459621556138
v 0.8660254037844387 1.75 -0.2320508075688773
v 1.0000000000000002 1.5 -0.2679491924311228
v 0.8660254037844387 1.25 -0.23205080756887736
v 0.5 1.0669872981077806 -0.13397459621556138
v 0.3660254037844383 1.9330127018922194 -0.36602540378443843
v 0.6339745962155607 1.75 -0.6339745962155612
v 0.7320508075688767 1.5 -0.7320508075688771
v 0.6339745962155607 1.25 -0.6339745962155612
v 0.3660254037844383 1.0669872981077806 -0.36602540378443843
v 0.13397459621556135 1.9330127018922194 -0.5
v 0.2320508075688775 1.75 -0.8660254037844385
v 0.26794919243112275 1.5 -1
v 0.2320508075688775 1.25 -0.866025403784439
v 0.13397459621556135 1.0669872981077806 -0.5
v -0.13397459621556113 1.9330127018922194 -0.5000000000000001
v -0.23205080756887692 1.75 -0.866025403784439
v -0.26794919243112225 1.5 -1.0000000000000002
v -0.23205080756887692 1.25 -0.8660254037844392
v -0.13397459621556113 1.0669872981077806 -0.5000000000000001
v -0.3660254037844383 1.9330127018922194 -0.36602540378443854
v -0.6339745962155607 1.75 -0.6339745962155615
v -0.7320508075688767 1.5 -0.7320508075688776
v -0.6339745962155607 1.25 -0.6339745962155615
v -0.3660254037844383 1.0669872981077806 -0.36602540378443854
v -0.5 1.9330127018922194 -0.13397459621556124
v -0.8660254037844387 1.75 -0.23205080756887722
v -1 1.5 -0.2679491924311225
v -0.8660254037844387 1.25 -0.23205080756887722
v -0.5 1.0669872981077806 -0.13397459621556124
v -0.5000000000000001 1.9330127018922194 0.1339745962155611
v -0.8660254037844387 1.75 0.2320508075688769
v -1.0000000000000002 1.5 0.26794919243112225
v -0.8660254037844387 1.25 0.23205080756887692
v -0.5000000000000001 1.0669872981077806 0.1339745962155611
v -0.3660254037844384 1.9330127018922194 0.36602540378443843
v -0.6339745962155612 1.75 0.6339745962155611
v -0.7320508075688773 1.5 0.732050807568877
v -0.6339745962155612 1.25 0.6339745962155611
v -0.3660254037844384 1.0669872981077806 0.36602540378443843
v -0.13397459621556115 1.9330127018922194 0.5
v -0.23205080756887722 1.75 0.8660254037844389
v -0.2679491924311225 1.5 1.0000000000000002
v -0.23205080756887722 1.25 0.866025403784439
v -0.13397459621556115 1.0669872981077806 0.5
vt 0 0.7411749999999999
vt 0.133975 0.7411749999999999
vt 0.0669875 1
vt 0.0490375 1
vt 0 0.7411749999999999
vt 0.23205 0.7411749999999999
vt 0.18301250000000002 1
vt 0.017950000000000008 1
vt 0 0.7411749999999999
vt 0.26795 0.7411749999999999
vt 0.25 1
vt 0 1
vt 0.017950000000000008 0.7411749999999999
vt 0.25 0.7411749999999999
vt 0.26795 1
vt 0 1
vt 0.0490375 0.7411749999999999
vt 0.18301250000000002 0.7411749999999999
vt 0.23205 1
vt 0.133975 1
vt 0 1
vt 0.0669875 0.7411749999999999
vt 0 0.7411749999999999
vt 0.133975 0.7411749999999999
vt 0.0669875 1
vt 0.0490375 1
vt 0 0.7411749999999999
vt 0.23205 0.7411749999999999
vt 0.18301250000000002 1
vt 0.017950000000000008 1
vt 0 0.7411749999999999
vt 0.26795 0.7411749999999999
vt 0.25 1
vt 0 1
vt 0.017950000000000008 0.7411749999999999
vt 0.25 0.7411749999999999
vt 0.26795 1
vt 0 1
vt 0.0490375 0.7411749999999999
vt 0.18301250000000002 0.7411749999999999
vt 0.23205 1
vt 0.133975 1
vt 0 1
vt 0.0669875 0.7411749999999999
vt 0 0.7411749999999999
vt 0.133975 0.7411749999999999
vt 0.0669875 1
vt 0.0490375 1
vt 0 0.7411749999999999
vt 0.23205 0.7411749999999999
vt 0.18301250000000002 1
vt 0.017950000000000008 1
vt 0 0.7411749999999999
vt 0.26795 0.7411749999999999
vt 0.25 1
vt 0 1
vt 0.017950000000000008 0.7411749999999999
vt 0.25 0.7411749999999999
vt 0.26795 1
vt 0 1
vt 0.0490375 0.7411749999999999
vt 0.18301250000000002 0.7411749999999999
vt 0.23205 1
vt 0.133975 1
vt 0 1
vt 0.0669875 0.7411749999999999
vt 0 0.7411749999999999
vt 0.133975 0.7411749999999999
vt 0.0669875 1
vt 0.0490375 1
vt 0 0.7411749999999999
vt 0.23205 0.7411749999999999
vt 0.18301250000000002 1
vt 0.017950000000000008 1
vt 0 0.7411749999999999
vt 0.26795 0.7411749999999999
vt 0.25 1
vt 0 1
vt 0.017950000000000008 0.7411749999999999
vt 0.25 0.7411749999999999
vt 0.26795 1
vt 0 1
vt 0.0490375 0.7411749999999999
vt 0.18301250000000002 0.7411749999999999
vt 0.23205 1
vt 0.133975 1
vt 0 1
vt 0.0669875 0.7411749999999999
vt 0 0.7411749999999999
vt 0.133975 0.7411749999999999
vt 0.0669875 1
vt 0.0490375 1
vt 0 0.7411749999999999
vt 0.23205 0.7411749999999999
vt 0.18301250000000002 1
vt 0.017950000000000008 1
vt 0 0.7411749999999999
vt 0.26795 0.7411749999999999
vt 0.25 1
vt 0 1
vt 0.017950000000000008 0.7411749999999999
vt 0.25 0.7411749999999999
vt 0.26795 1
vt 0 1
vt 0.0490375 0.7411749999999999
vt 0.18301250000000002 0.7411749999999999
vt 0.23205 1
vt 0.133975 1
vt 0 1
vt 0.0669875 0.7411749999999999
vt 0 0.7411749999999999
vt 0.133975 0.7411749999999999
vt 0.0669875 1
vt 0.0490375 1
vt 0 0.7411749999999999
vt 0.23205 0.7411749999999999
vt 0.18301250000000002 1
vt 0.017950000000000008 1
vt 0 0.7411749999999999
vt 0.26795 0.7411749999999999
vt 0.25 1
vt 0 1
vt 0.017950000000000008 0.7411749999999999
vt 0.25 0.7411749999999999
vt 0.26795 1
vt 0 1
vt 0.0490375 0.7411749999999999
vt 0.18301250000000002 0.7411749999999999
vt 0.23205 1
vt 0.133975 1
vt 0 1
vt 0.0669875 0.7411749999999999
vt 0 0.7411749999999999
vt 0.133975 0.7411749999999999
vt 0.0669875 1
vt 0.0490375 1
vt 0 0.7411749999999999
vt 0.23205 0.7411749999999999
vt 0.18301250000000002 1
vt 0.017950000000000008 1
vt 0 0.7411749999999999
vt 0.26795 0.7411749999999999
vt 0.25 1
vt 0 1
vt 0.017950000000000008 0.7411749999999999
vt 0.25 0.7411749999999999
vt 0.26795 1
vt 0 1
vt 0.0490375 0.7411749999999999
vt 0.18301250000000002 0.7411749999999999
vt 0.23205 1
vt 0.133975 1
vt 0 1
vt 0.0669875 0.7411749999999999
vt 0 0.7411749999999999
vt 0.133975 0.7411749999999999
vt 0.0669875 1
vt 0.0490375 1
vt 0 0.7411749999999999
vt 0.23205 0.7411749999999999
vt 0.18301250000000002 1
vt 0.017950000000000008 1
vt 0 0.7411749999999999
vt 0.26795 0.7411749999999999
vt 0.25 1
vt 0 1
vt 0.017950000000000008 0.7411749999999999
vt 0.25 0.7411749999999999
vt 0.26795 1
vt 0 1
vt 0.0490375 0.7411749999999999
vt 0.18301250000000002 0.7411749999999999
vt 0.23205 1
vt 0.133975 1
vt 0 1
vt 0.0669875 0.7411749999999999
vt 0 0.7411749999999999
vt 0.133975 0.7411749999999999
vt 0.0669875 1
vt 0.0490375 1
vt 0 0.7411749999999999
vt 0.23205 0.7411749999999999
vt 0.18301250000000002 1
vt 0.017950000000000008 1
vt 0 0.7411749999999999
vt 0.26795 0.7411749999999999
vt 0.25 1
vt 0 1
vt 0.017950000000000008 0.7411749999999999
vt 0.25 0.7411749999999999
vt 0.26795 1
vt 0 1
vt 0.0490375 0.7411749999999999
vt 0.18301250000000002 0.7411749999999999
vt 0.23205 1
vt 0.133975 1
vt 0 1
vt 0.0669875 0.7411749999999999
vt 0 0.7411749999999999
vt 0.133975 0.7411749999999999
vt 0.0669875 1
vt 0.0490375 1
vt 0 0.7411749999999999
vt 0.23205 0.7411749999999999
vt 0.18301250000000002 1
vt 0.017950000000000008 1
vt 0 0.7411749999999999
vt 0.26795 0.7411749999999999
vt 0.25 1
vt 0 1
vt 0.017950000000000008 0.7411749999999999
vt 0.25 0.7411749999999999
vt 0.26795 1
vt 0 1
vt 0.0490375 0.7411749999999999
vt 0.18301250000000002 0.7411749999999999
vt 0.23205 1
vt 0.133975 1
vt 0 1
vt 0.0669875 0.7411749999999999
vt 0 0.7411749999999999
vt 0.133975 0.7411749999999999
vt 0.0669875 1
vt 0.04903750000000001 1
vt 0 0.7411749999999999
vt 0.23204999999999998 0.7411749999999999
vt 0.18301250000000002 1
vt 0.01795000000000002 1
vt 0 0.7411749999999999
vt 0.26795 0.7411749999999999
vt 0.25 1
vt 0 1
vt 0.01795000000000002 0.7411749999999999
vt 0.25 0.7411749999999999
vt 0.26795 1
vt 0 1
vt 0.04903750000000007 0.7411749999999999
vt 0.18301250000000002 0.7411749999999999
vt 0.23204999999999998 1
vt 0.133975 1
vt 0 1
vt 0.0669875 0.7411749999999999
vt 0 0.7411749999999999
vt 0.13397499999999996 0.7411749999999999
vt 0.06698749999999998 1
vt 0.04903750000000007 1
vt 0 0.7411749999999999
vt 0.23204999999999998 0.7411749999999999
vt 0.18301250000000002 1
vt 0.01795000000000002 1
vt 0 0.7411749999999999
vt 0.26795 0.7411749999999999
vt 0.25 1
vt 0 1
vt 0.01795000000000002 0.7411749999999999
vt 0.25 0.7411749999999999
vt 0.26795 1
vt 0.01795000000000002 1
vt 0.06698750000000009 0.7411749999999999
vt 0.20096250000000004 0.7411749999999999
vt 0.25 1
vt 0.13397499999999996 1
vt 0 1
vt 0.06698749999999998 0.7411749999999999
vn 0.06639408804805413 0.9911444396701569 0.11499793382143104
vn 0.2236067977499795 0.8944271909999161 0.3872983346207413
vn 0.44070620832769025 0.4723474904831455 0.7633255440345919
vn 0.44070620832769075 -0.4723474904831451 0.7633255440345915
vn 0.22360679774997932 -0.894427190999916 0.3872983346207415
vn 0.06639408804805413 -0.9911444396701569 0.11499793382143104
vn 0.11499793382143106 0.9911444396701569 0.06639408804805418
vn 0.3872983346207415 0.894427190999916 0.22360679774997963
vn 0.7633255440345913 0.4723474904831459 0.4407062083276905
vn 0.7633255440345913 -0.4723474904831459 0.44070620832769025
vn 0.3872983346207418 -0.8944271909999156 0.22360679774997966
vn 0.11499793382143106 -0.9911444396701569 0.06639408804805418
vn 0.13278817609610802 0.9911444396701569 0
vn 0.44721359549995787 0.894427190999916 0
vn 0.8814124166553782 0.47234749048314634 0
vn 0.8814124166553782 -0.47234749048314634 0
vn 0.4472135954999582 -0.894427190999916 0
vn 0.13278817609610802 -0.9911444396701569 0
vn 0.11499793382143102 0.9911444396701569 -0.06639408804805419
vn 0.3872983346207414 0.894427190999916 -0.2236067977499796
vn 0.7633255440345912 0.47234749048314617 -0.4407062083276903
vn 0.7633255440345912 -0.4723474904831462 -0.4407062083276903
vn 0.38729833462074176 -0.8944271909999159 -0.22360679774997985
vn 0.11499793382143102 -0.9911444396701569 -0.06639408804805419
vn 0.06639408804805416 0.9911444396701569 -0.11499793382143102
vn 0.22360679774997932 0.8944271909999161 -0.38729833462074154
vn 0.44070620832769 0.47234749048314595 -0.7633255440345917
vn 0.4407062083276907 -0.4723474904831462 -0.7633255440345912
vn 0.2236067977499796 -0.8944271909999157 -0.38729833462074165
vn 0.06639408804805418 -0.9911444396701569 -0.11499793382143104
vn 5.5019568882550383e-17 0.9911444396701569 -0.13278817609610796
vn 5.845624507196237e-16 0.8944271909999161 -0.447213595499958
vn 3.6520519068660634e-16 0.4723474904831463 -0.8814124166553783
vn 2.1085131515236094e-16 -0.4723474904831449 -0.881412416655379
vn 1.2656148310542068e-16 -0.894427190999916 -0.4472135954999577
vn 5.5019568882550396e-17 -0.9911444396701569 -0.132788176096108
vn -0.06639408804805413 0.9911444396701569 -0.11499793382143107
vn -0.22360679774997913 0.894427190999916 -0.38729833462074137
vn -0.44070620832768936 0.47234749048314534 -0.7633255440345924
vn -0.44070620832769014 -0.47234749048314506 -0.763325544034592
vn -0.22360679774997955 -0.894427190999916 -0.38729833462074165
vn -0.06639408804805412 -0.9911444396701569 -0.11499793382143104
vn -0.11499793382143104 0.9911444396701569 -0.06639408804805413
vn -0.3872983346207415 0.8944271909999161 -0.22360679774997946
vn -0.7633255440345919 0.4723474904831463 -0.4407062083276895
vn -0.7633255440345913 -0.47234749048314656 -0.44070620832768986
vn -0.3872983346207417 -0.8944271909999157 -0.22360679774997957
vn -0.11499793382143107 -0.9911444396701569 -0.06639408804805415
vn -0.132788176096108 0.9911444396701569 -5.501956888255041e-17
vn -0.4472135954999578 0.894427190999916 0
vn -0.8814124166553785 0.4723474904831457 -3.652051906866067e-16
vn -0.8814124166553786 -0.47234749048314584 0
vn -0.44721359549995826 -0.894427190999916 -2.5312296621084165e-16
vn -0.13278817609610802 -0.9911444396701569 -5.501956888255042e-17
vn -0.11499793382143106 0.9911444396701569 0.06639408804805418
vn -0.38729833462074176 0.8944271909999159 0.2236067977499791
vn -0.7633255440345917 0.47234749048314617 0.4407062083276893
vn -0.7633255440345919 -0.4723474904831463 0.4407062083276895
vn -0.38729833462074187 -0.8944271909999156 0.22360679774997966
vn -0.11499793382143106 -0.9911444396701569 0.06639408804805418
vn -0.06639408804805413 0.9911444396701569 0.11499793382143109
vn -0.22360679774997935 0.894427190999916 0.38729833462074137
vn -0.4407062083276897 0.4723474904831461 0.7633255440345917
vn -0.4407062083276902 -0.47234749048314634 0.7633255440345914
vn -0.2236067977499795 -0.894427190999916 0.38729833462074176
vn -0.06639408804805413 -0.9911444396701569 0.11499793382143109
vn 0 0.9911444396701569 0.13278817609610802
vn 0 0.8944271909999161 0.4472135954999576
vn 0 0.47234749048314567 0.8814124166553786
vn 0 -0.47234749048314556 0.8814124166553788
vn 0 -0.894427190999916 0.4472135954999579
vn 0 -0.9911444396701569 0.13278817609610802
usemtl m_b2ce2f43-7f72-4bc6-bdfe-0991452e9439
f 11/25/7 16/26/7 10/27/7
f 11/28/8 12/29/8 17/30/8 16/31/8
f 12/32/9 13/33/9 18/34/9 17/35/9
f 13/36/10 14/37/10 19/38/10 18/39/10
f 14/40/11 15/41/11 20/42/11 19/43/11
f 20/44/12 15/45/12 9/46/12
f 16/47/13 21/48/13 10/49/13
f 16/50/14 17/51/14 22/52/14 21/53/14
f 17/54/15 18/55/15 23/56/15 22/57/15
f 18/58/16 19/59/16 24/60/16 23/61/16
f 19/62/17 20/63/17 25/64/17 24/65/17
f 25/66/18 20/67/18 9/68/18
f 21/69/19 26/70/19 10/71/19
f 21/72/20 22/73/20 27/74/20 26/75/20
f 22/76/21 23/77/21 28/78/21 27/79/21
f 23/80/22 24/81/22 29/82/22 28/83/22
f 24/84/23 25/85/23 30/86/23 29/87/23
f 30/88/24 25/89/24 9/90/24
f 26/91/25 31/92/25 10/93/25
f 26/94/26 27/95/26 32/96/26 31/97/26
f 27/98/27 28/99/27 33/100/27 32/101/27
f 28/102/28 29/103/28 34/104/28 33/105/28
f 29/106/29 30/107/29 35/108/29 34/109/29
f 35/110/30 30/111/30 9/112/30
f 31/113/31 36/114/31 10/115/31
f 31/116/32 32/117/32 37/118/32 36/119/32
f 32/120/33 33/121/33 38/122/33 37/123/33
f 33/124/34 34/125/34 39/126/34 38/127/34
f 34/128/35 35/129/35 40/130/35 39/131/35
f 40/132/36 35/133/36 9/134/36
f 36/135/37 41/136/37 10/137/37
f 36/138/38 37/139/38 42/140/38 41/141/38
f 37/142/39 38/143/39 43/144/39 42/145/39
f 38/146/40 39/147/40 44/148/40 43/149/40
f 39/150/41 40/151/41 45/152/41 44/153/41
f 45/154/42 40/155/42 9/156/42
f 41/157/43 46/158/43 10/159/43
f 41/160/44 42/161/44 47/162/44 46/163/44
f 42/164/45 43/165/45 48/166/45 47/167/45
f 43/168/46 44/169/46 49/170/46 48/171/46
f 44/172/47 45/173/47 50/174/47 49/175/47
f 50/176/48 45/177/48 9/178/48
f 46/179/49 51/180/49 10/181/49
f 46/182/50 47/183/50 52/184/50 51/185/50
f 47/186/51 48/187/51 53/188/51 52/189/51
f 48/190/52 49/191/52 54/192/52 53/193/52
f 49/194/53 50/195/53 55/196/53 54/197/53
f 55/198/54 50/199/54 9/200/54
f 51/201/55 56/202/55 10/203/55
f 51/204/56 52/205/56 57/206/56 56/207/56
f 52/208/57 53/209/57 58/210/57 57/211/57
f 53/212/58 54/213/58 59/214/58 58/215/58
f 54/216/59 55/217/59 60/218/59 59/219/59
f 60/220/60 55/221/60 9/222/60
f 56/223/61 61/224/61 10/225/61
f 56/226/62 57/227/62 62/228/62 61/229/62
f 57/230/63 58/231/63 63/232/63 62/233/63
f 58/234/64 59/235/64 64/236/64 63/237/64
f 59/238/65 60/239/65 65/240/65 64/241/65
f 65/242/66 60/243/66 9/244/66
f 61/245/67 66/246/67 10/247/67
f 61/248/68 62/249/68 67/250/68 66/251/68
f 62/252/69 63/253/69 68/254/69 67/255/69
f 63/256/70 64/257/70 69/258/70 68/259/70
f 64/260/71 65/261/71 70/262/71 69/263/71
f 70/264/72 65/265/72 9/266/72
f 66/267/73 11/268/73 10/269/73
f 66/270/74 67/271/74 12/272/74 11/273/74
f 67/274/75 68/275/75 13/276/75 12/277/75
f 68/278/76 69/279/76 14/280/76 13/281/76
f 69/282/77 70/283/77 15/284/77 14/285/77
f 15/286/78 70/287/78 9/288/78