# Made in Blockbench 4.11.1
mtllib wheel.mtl

o roda
v 0.0625 0 4.163336342344337e-17
v -0.0625 0 6.938893903907228e-17
v 0.0625 -0.25 9.71445146547012e-17
v -0.0625 -0.25 1.249000902703301e-16
v 0.06250000000000003 -0.21650635094610965 0.12500000000000006
v -0.06249999999999997 -0.21650635094610965 0.12500000000000008
v 0.06250000000000004 -0.12499999999999999 0.21650635094610973
v -0.06249999999999995 -0.12499999999999999 0.21650635094610973
v 0.06250000000000006 4.020306624191591e-17 0.25000000000000006
v -0.062499999999999944 4.020306624191591e-17 0.25000000000000006
v 0.06250000000000004 0.12499999999999999 0.21650635094610968
v -0.06249999999999995 0.12499999999999999 0.21650635094610973
v 0.06250000000000003 0.2165063509461097 0.12499999999999997
v -0.06249999999999997 0.2165063509461097 0.125
v 0.0625 0.25 1.6738382170869373e-17
v -0.0625 0.25 4.449395778649829e-17
v 0.06249999999999997 0.21650635094610962 -0.12500000000000006
v -0.06250000000000003 0.21650635094610962 -0.125
v 0.06249999999999995 0.12500000000000006 -0.21650635094610957
v -0.06250000000000004 0.12500000000000006 -0.2165063509461095
v 0.062499999999999944 -9.586896263232085e-18 -0.24999999999999994
v -0.06250000000000006 -9.586896263232085e-18 -0.24999999999999994
v 0.06249999999999995 -0.12500000000000008 -0.21650635094610957
v -0.06250000000000004 -0.12500000000000008 -0.21650635094610957
v 0.06249999999999997 -0.21650635094610962 -0.125
v -0.06250000000000003 -0.21650635094610962 -0.125
vt 0.1875 0.9832531250000001
vt 0.125 1
vt 0.125 0.875
vt 0 0.46875
vt 0.0625 0.46875
vt 0.0625 0.53125
vt 0 0.53125
vt 0.34375 0.5
vt 0.40625 0.5167468749999999
vt 0.34375 0.625
vt 0.233253125 0.9375
vt 0.1875 0.9832531250000001
vt 0.125 0.875
vt 0.29025625 0.84375
vt 0.35496249999999996 0.84375
vt 0.35496249999999996 0.90625
vt 0.29025625 0.90625
vt 0.40625 0.5167468749999999
vt 0.452003125 0.5625
vt 0.34375 0.625
vt 0.25 0.875
vt 0.233253125 0.9375
vt 0.125 0.875
vt 0.35496249999999996 0.84375
vt 0.41966875000000003 0.84375
vt 0.41966875000000003 0.90625
vt 0.35496249999999996 0.90625
vt 0.452003125 0.5625
vt 0.46875 0.625
vt 0.34375 0.625
vt 0.233253125 0.8125
vt 0.25 0.875
vt 0.125 0.875
vt 0.41966875000000003 0.84375
vt 0.484375 0.84375
vt 0.484375 0.90625
vt 0.41966875000000003 0.90625
vt 0.46875 0.625
vt 0.452003125 0.6875
vt 0.34375 0.625
vt 0.1875 0.7667468749999999
vt 0.233253125 0.8125
vt 0.125 0.875
vt 0 0.5625
vt 0.06470624999999999 0.5625
vt 0.06470624999999999 0.625
vt 0 0.625
vt 0.452003125 0.6875
vt 0.40625 0.7332531250000001
vt 0.34375 0.625
vt 0.125 0.75
vt 0.1875 0.7667468749999999
vt 0.125 0.875
vt 0.06470624999999999 0.5625
vt 0.1294125 0.5625
vt 0.1294125 0.625
vt 0.06470624999999999 0.625
vt 0.40625 0.7332531250000001
vt 0.34375 0.75
vt 0.34375 0.625
vt 0.0625 0.7667468749999999
vt 0.125 0.75
vt 0.125 0.875
vt 0.011212499999999986 0.65625
vt 0.07591875 0.65625
vt 0.07591875 0.71875
vt 0.011212499999999986 0.71875
vt 0.34375 0.75
vt 0.28125 0.7332531250000001
vt 0.34375 0.625
vt 0.016746874999999994 0.8125
vt 0.0625 0.7667468749999999
vt 0.125 0.875
vt 0.07591875 0.65625
vt 0.140625 0.65625
vt 0.140625 0.71875
vt 0.07591875 0.71875
vt 0.28125 0.7332531250000001
vt 0.235496875 0.6875
vt 0.34375 0.625
vt 0 0.875
vt 0.016746874999999994 0.8125
vt 0.125 0.875
vt 0.28125 0.9375
vt 0.34595624999999997 0.9375
vt 0.34595624999999997 1
vt 0.28125 1
vt 0.235496875 0.6875
vt 0.21875 0.625
vt 0.34375 0.625
vt 0.016746874999999994 0.9375
vt 0 0.875
vt 0.125 0.875
vt 0.34595624999999997 0.9375
vt 0.41066250000000004 0.9375
vt 0.41066250000000004 1
vt 0.34595624999999997 1
vt 0.21875 0.625
vt 0.235496875 0.5625
vt 0.34375 0.625
vt 0.0625 0.9832531250000001
vt 0.016746874999999994 0.9375
vt 0.125 0.875
vt 0.41066250000000004 0.9375
vt 0.47536875 0.9375
vt 0.47536875 1
vt 0.41066250000000004 1
vt 0.235496875 0.5625
vt 0.28125 0.5167468749999999
vt 0.34375 0.625
vt 0.125 1
vt 0.0625 0.9832531250000001
vt 0.125 0.875
vt 0.09375 0.46875
vt 0.15625 0.46875
vt 0.15625 0.53125
vt 0.09375 0.53125
vt 0.28125 0.5167468749999999
vt 0.34375 0.5
vt 0.34375 0.625
vn 1 -4.930380657631324e-32 -2.220446049250313e-16
vn 5.746937261686313e-17 -0.9659258262890682 0.25881904510252096
vn -1 4.930380657631324e-32 2.220446049250313e-16
vn 1 -4.930380657631324e-32 -2.220446049250313e-16
vn 1.5700924586837752e-16 -0.7071067811865476 0.7071067811865476
vn -1 4.930380657631324e-32 2.220446049250313e-16
vn 1 -4.930380657631324e-32 -2.220446049250313e-16
vn 2.144786184852406e-16 -0.25881904510252063 0.9659258262890683
vn -1 4.930380657631324e-32 2.220446049250313e-16
vn 1 -4.930380657631324e-32 -2.220446049250313e-16
vn 2.1447861848524057e-16 0.25881904510252096 0.9659258262890682
vn -1 4.930380657631324e-32 2.220446049250313e-16
vn 1 -4.930380657631324e-32 -2.220446049250313e-16
vn 1.5700924586837752e-16 0.7071067811865476 0.7071067811865476
vn -1 4.930380657631324e-32 2.220446049250313e-16
vn 1 -4.930380657631324e-32 -2.220446049250313e-16
vn 5.746937261686304e-17 0.9659258262890684 0.2588190451025206
vn -1 4.930380657631324e-32 2.220446049250313e-16
vn 1 -4.930380657631324e-32 -2.220446049250313e-16
vn -5.746937261686314e-17 0.9659258262890683 -0.258819045102521
vn -1 4.930380657631324e-32 2.220446049250313e-16
vn 1 -4.930380657631324e-32 -2.220446049250313e-16
vn -1.5700924586837754e-16 0.7071067811865475 -0.7071067811865477
vn -1 4.930380657631324e-32 2.220446049250313e-16
vn 1 -4.930380657631324e-32 -2.220446049250313e-16
vn -2.144786184852406e-16 0.25881904510252113 -0.9659258262890683
vn -1 4.930380657631324e-32 2.220446049250313e-16
vn 1 -4.930380657631324e-32 -2.220446049250313e-16
vn -2.144786184852406e-16 -0.25881904510252096 -0.9659258262890683
vn -1 4.930380657631324e-32 2.220446049250313e-16
vn 1 -4.930380657631324e-32 -2.220446049250313e-16
vn -1.5700924586837752e-16 -0.7071067811865476 -0.7071067811865476
vn -1 4.930380657631324e-32 2.220446049250313e-16
vn 1 -4.930380657631324e-32 -2.220446049250313e-16
vn -5.746937261686309e-17 -0.9659258262890683 -0.2588190451025208
vn -1 4.930380657631324e-32 2.220446049250313e-16
usemtl m_52a80901-feec-9c80-462f-f7d71ba7a899
f 5/1/1 3/2/1 1/3/1
f 3/4/2 5/5/2 6/6/2 4/7/2
f 4/8/3 6/9/3 2/10/3
f 7/11/4 5/12/4 1/13/4
f 5/14/5 7/15/5 8/16/5 6/17/5
f 6/18/6 8/19/6 2/20/6
f 9/21/7 7/22/7 1/23/7
f 7/24/8 9/25/8 10/26/8 8/27/8
f 8/28/9 10/29/9 2/30/9
f 11/31/10 9/32/10 1/33/10
f 9/34/11 11/35/11 12/36/11 10/37/11
f 10/38/12 12/39/12 2/40/12
f 13/41/13 11/42/13 1/43/13
f 11/44/14 13/45/14 14/46/14 12/47/14
f 12/48/15 14/49/15 2/50/15
f 15/51/16 13/52/16 1/53/16
f 13/54/17 15/55/17 16/56/17 14/57/17
f 14/58/18 16/59/18 2/60/18
f 17/61/19 15/62/19 1/63/19
f 15/64/20 17/65/20 18/66/20 16/67/20
f 16/68/21 18/69/21 2/70/21
f 19/71/22 17/72/22 1/73/22
f 17/74/23 19/75/23 20/76/23 18/77/23
f 18/78/24 20/79/24 2/80/24
f 21/81/25 19/82/25 1/83/25
f 19/84/26 21/85/26 22/86/26 20/87/26
f 20/88/27 22/89/27 2/90/27
f 23/91/28 21/92/28 1/93/28
f 21/94/29 23/95/29 24/96/29 22/97/29
f 22/98/30 24/99/30 2/100/30
f 25/101/31 23/102/31 1/103/31
f 23/104/32 25/105/32 26/106/32 24/107/32
f 24/108/33 26/109/33 2/110/33
f 3/111/34 25/112/34 1/113/34
f 25/114/35 3/115/35 4/116/35 26/117/35
f 26/118/36 4/119/36 2/120/36