<?xml version="1.0" standalone="no"?>
<!DOCTYPE svg PUBLIC "-//W3C//DTD SVG 20010904//EN"
 "http://www.w3.org/TR/2001/REC-SVG-20010904/DTD/svg10.dtd">
<svg version="1.0" xmlns="http://www.w3.org/2000/svg"
 width="1142.000000pt" height="508.000000pt" viewBox="0 0 1142.000000 508.000000"
 preserveAspectRatio="xMidYMid meet">

<g transform="translate(0.000000,508.000000) scale(0.100000,-0.100000)"
fill="#000000" stroke="none">
<path d="M2050 4663 c-368 -37 -688 -157 -985 -366 -132 -93 -359 -320 -452
-452 -182 -257 -296 -535 -349 -850 -25 -144 -25 -463 -1 -609 56 -331 183
-630 378 -888 93 -125 225 -263 258 -271 22 -5 21 -3 -10 29 -48 50 -24 42 58
-20 39 -30 78 -57 85 -61 15 -7 9 -2 -84 73 -57 47 -105 101 -133 152 -4 8 5
4 21 -10 30 -26 24 -16 -23 43 -18 23 -21 32 -12 48 8 15 7 24 -2 35 -22 26
-1 27 25 1 35 -35 33 -23 -6 27 l-32 41 32 -29 c18 -17 32 -25 32 -19 0 6 -7
16 -16 23 -8 8 -20 23 -26 34 -9 17 -8 19 3 9 20 -20 27 -16 21 12 -3 20 -1
24 12 19 16 -6 16 3 0 83 -2 12 0 24 5 27 5 3 12 -16 16 -42 10 -68 48 -154
99 -226 49 -68 89 -110 67 -69 -6 13 -8 23 -4 23 13 -1 103 -87 103 -99 0 -6
10 -16 23 -22 l22 -12 -19 22 c-20 22 -20 22 0 15 10 -3 4 4 -15 15 -36 24
-37 40 -1 21 12 -6 24 -10 26 -7 3 2 -9 10 -25 16 -28 12 -79 58 -73 67 1 2 0
4 -3 4 -3 0 -8 0 -12 0 -4 0 8 -16 27 -35 45 -47 26 -45 -22 2 -21 20 -38 31
-38 24 0 -18 -26 3 -42 33 -11 21 -11 21 11 2 28 -25 48 -28 75 -11 14 10 26
11 36 5 8 -5 24 -9 35 -9 14 0 10 5 -15 16 -40 17 -119 74 -120 86 0 5 12 -1
27 -12 39 -31 40 -18 1 21 -19 18 -22 23 -8 11 29 -26 49 -31 30 -9 -7 9 10 5
40 -10 29 -14 54 -23 57 -20 3 3 -10 11 -29 19 -40 17 -104 71 -120 101 -8 16
-2 13 23 -10 19 -17 48 -41 66 -52 35 -25 68 -31 37 -7 -11 9 -14 14 -6 15 7
0 -13 25 -45 56 -32 31 -44 46 -28 35 69 -49 76 -54 80 -49 3 3 -11 16 -32 29
-33 22 -86 84 -55 65 7 -4 12 -2 12 4 0 6 12 2 26 -9 15 -12 32 -21 39 -21 20
0 57 -99 67 -180 5 -41 11 -84 12 -94 1 -11 8 -22 14 -24 7 -2 12 -8 12 -14 0
-6 -8 -7 -17 -4 -11 4 -8 -2 7 -14 14 -11 20 -20 14 -20 -16 0 -12 -33 6 -47
12 -10 13 -12 1 -13 -12 0 -11 -3 1 -17 16 -19 52 -83 53 -95 0 -3 16 -18 36
-31 33 -22 36 -23 32 -6 -3 11 -9 22 -14 25 -5 3 -9 10 -9 15 0 6 5 7 12 3 7
-5 8 -3 2 7 -5 8 -9 31 -9 51 l0 37 40 -37 c55 -52 125 -105 131 -99 3 2 -26
28 -65 56 -71 53 -120 107 -84 94 16 -6 17 -5 3 13 -14 18 -14 18 2 5 10 -7
15 -17 12 -23 -7 -11 14 -38 29 -38 6 0 2 7 -9 15 -15 12 -16 16 -5 24 9 6 10
11 3 15 -6 4 -9 13 -6 20 3 8 0 17 -7 22 -9 5 -10 2 -5 -11 7 -18 6 -18 -14 0
-24 22 -27 43 -3 24 15 -12 16 -12 9 6 -4 11 28 -14 71 -56 116 -112 128 -116
20 -7 -83 84 -139 153 -109 134 6 -3 14 3 17 14 6 20 10 18 55 -24 27 -25 55
-46 62 -46 7 0 0 8 -17 19 -37 23 -70 59 -62 68 4 3 17 -2 29 -13 13 -10 7 -1
-12 20 -24 27 -29 37 -16 32 16 -5 17 -4 6 9 -7 8 -16 15 -20 15 -11 0 -8 -33
4 -50 10 -13 9 -13 -7 -1 -12 10 -17 23 -14 38 2 13 0 26 -4 29 -5 3 -9 10 -9
16 0 6 6 6 15 -2 9 -7 18 -10 21 -7 3 3 -8 13 -25 23 -33 19 -48 44 -28 44 7
0 1 10 -13 21 -17 14 -21 22 -13 26 9 3 10 10 3 24 -15 28 13 25 34 -4 10 -12
7 -5 -5 16 -12 21 -19 40 -16 43 5 5 22 -15 89 -105 33 -44 129 -111 158 -111
9 1 5 6 -10 15 -14 8 -20 15 -15 15 6 0 -12 13 -40 28 -27 15 -49 32 -48 37 1
6 -3 16 -9 23 -8 9 -6 11 8 7 10 -4 7 1 -7 9 -54 31 -110 129 -153 264 -28 90
-32 132 -15 163 10 20 11 19 30 -5 23 -29 25 -43 4 -26 -10 8 -15 9 -15 2 0
-6 8 -15 18 -21 9 -5 17 -21 17 -35 1 -21 -2 -23 -20 -15 -12 6 -9 1 8 -11 15
-12 27 -26 27 -32 0 -6 -7 -5 -17 3 -10 7 -4 -2 12 -20 28 -31 28 -33 8 -27
-31 10 -29 -2 1 -14 14 -5 32 -26 42 -47 10 -21 24 -46 32 -55 17 -21 10 -23
-20 -7 -11 6 -18 7 -14 1 3 -5 19 -15 36 -22 32 -13 42 -33 13 -25 -10 3 -3
-2 16 -11 24 -11 31 -18 22 -23 -9 -6 -5 -10 14 -15 18 -5 25 -12 21 -21 -3
-9 1 -15 9 -15 8 0 15 -7 15 -15 0 -8 9 -15 19 -15 24 0 36 -16 19 -23 -7 -3
-1 -6 14 -6 29 -1 46 -16 26 -24 -7 -3 -3 -6 8 -6 37 -2 172 -69 189 -94 9
-14 34 -37 56 -52 51 -36 42 -46 -11 -11 -46 30 -67 35 -30 6 14 -11 19 -20
12 -20 -20 0 -4 -18 31 -36 l32 -16 -30 26 c-16 14 -27 25 -24 26 12 0 180
-92 175 -97 -2 -3 -14 1 -26 7 -12 6 -24 9 -27 6 -4 -3 17 -15 46 -27 28 -12
50 -24 48 -26 -2 -2 -21 4 -42 12 -20 9 -39 14 -41 12 -2 -2 25 -16 61 -32 36
-15 68 -31 71 -36 3 -5 -3 -6 -12 -2 -11 4 -15 2 -11 -4 4 -7 -3 -10 -18 -9
-14 0 -25 5 -25 9 0 5 -5 5 -11 1 -8 -5 -6 -10 5 -16 9 -5 21 -6 26 -3 6 3 10
2 10 -2 0 -5 12 -14 28 -21 l27 -12 -30 6 c-22 3 -26 2 -15 -5 8 -6 15 -14 15
-18 0 -14 38 -50 71 -66 28 -15 33 -14 61 2 29 18 30 21 25 77 -2 33 -8 67
-13 76 -5 9 -46 36 -91 59 -46 23 -102 55 -125 71 -65 44 -51 26 19 -26 34
-25 58 -46 54 -46 -17 0 -218 134 -206 138 6 2 -7 20 -29 39 -23 19 -41 42
-41 50 0 14 3 13 23 -3 l22 -19 -19 23 c-11 12 -29 22 -40 22 -17 0 -18 -2 -6
-10 8 -5 12 -12 8 -15 -3 -3 -21 4 -39 15 -29 18 -30 21 -9 15 14 -3 20 -3 15
2 -6 4 -10 15 -10 23 0 8 -33 36 -73 63 -42 27 -72 53 -69 60 2 6 -3 21 -12
31 -9 11 4 6 32 -13 26 -17 47 -29 47 -25 0 4 6 1 13 -8 6 -9 26 -23 42 -33
27 -15 28 -15 10 0 -11 9 -19 20 -18 25 2 5 -5 6 -14 3 -11 -4 -14 -3 -9 5 4
7 4 12 -1 12 -4 0 -19 10 -33 23 -14 12 -20 18 -14 14 7 -4 25 -10 39 -13 15
-3 40 -11 56 -19 64 -34 66 -11 1 30 -59 37 -112 84 -112 98 0 6 11 0 24 -12
13 -13 25 -18 27 -12 2 6 26 -5 53 -24 27 -19 54 -35 60 -35 5 0 -10 13 -35
29 -53 36 -69 49 -89 76 -17 23 -29 30 107 -64 55 -37 66 -43 38 -18 -22 19
-37 38 -33 42 4 5 14 3 21 -4 8 -6 22 -9 30 -5 13 4 9 12 -19 36 -19 17 -32
33 -29 36 2 3 0 11 -7 19 -25 30 4 23 43 -11 24 -20 47 -36 52 -36 6 0 -8 13
-30 29 -42 30 -83 77 -83 94 0 5 22 -11 50 -37 47 -44 69 -58 55 -36 -10 16 7
12 27 -7 10 -9 18 -14 18 -11 0 3 -26 27 -57 54 -31 27 -54 43 -50 37 12 -19
2 -16 -14 4 -10 11 -10 14 -1 9 6 -4 12 -3 12 1 0 5 -6 16 -12 23 -7 8 4 -1
25 -20 26 -24 36 -29 31 -16 -7 19 -7 19 19 0 27 -19 38 -41 15 -28 -7 4 -1
-6 14 -22 20 -20 31 -25 38 -18 8 8 -9 28 -57 70 -37 32 -63 52 -58 44 4 -8
-4 -4 -18 9 -30 27 -38 43 -9 19 9 -9 23 -13 30 -11 8 3 37 -17 65 -43 29 -27
21 -16 -18 24 -81 84 -79 96 2 20 31 -29 53 -47 49 -40 -9 16 6 16 24 -1 8 -6
0 4 -18 23 -33 37 -45 67 -14 36 31 -31 112 -89 117 -84 3 2 -16 19 -41 37
-26 18 -43 35 -40 38 3 3 14 -1 24 -10 10 -10 23 -17 28 -17 5 0 1 5 -8 11
-10 5 -18 15 -18 21 0 6 -24 36 -53 68 -40 43 -54 65 -54 87 0 24 5 30 20 29
11 -1 23 -8 25 -16 5 -13 3 -13 -14 0 -12 10 -9 2 9 -22 36 -48 34 -59 -3 -23
-16 16 -30 27 -30 24 0 -3 28 -31 62 -64 34 -33 57 -53 50 -44 -6 9 -8 20 -4
24 4 5 2 5 -4 2 -7 -4 -17 0 -24 8 -10 12 -10 15 1 15 7 0 1 12 -14 28 -40 42
-33 48 13 12 54 -43 50 -27 -10 40 -57 64 -57 81 0 25 22 -22 40 -34 40 -28 0
7 -5 15 -11 19 -8 5 -8 8 0 13 7 5 1 16 -16 32 -20 17 -23 18 -10 3 9 -11 17
-24 17 -28 0 -13 -18 4 -42 37 -15 21 -17 27 -5 18 13 -10 17 -10 17 -1 0 10
3 10 15 0 8 -7 15 -9 16 -4 0 5 2 21 4 36 2 15 -1 31 -7 34 -8 5 -9 1 -4 -12
4 -10 3 -15 -1 -10 -8 8 -12 56 -5 56 3 0 11 -8 19 -18 10 -12 10 -8 -2 16 -8
17 -11 32 -6 32 18 0 28 -34 33 -110 7 -103 38 -179 100 -243 28 -28 45 -44
38 -34 -7 9 -8 17 -3 17 15 0 83 -72 100 -105 15 -29 14 -29 -26 9 -22 22 -43
37 -46 35 -7 -8 72 -82 90 -85 9 -1 12 2 8 9 -3 7 3 4 15 -6 41 -36 73 -4 58
58 -3 12 -29 51 -57 86 -28 35 -60 82 -70 104 -20 44 -25 116 -9 146 12 21 1
26 -19 7 -16 -17 1 31 25 67 14 22 15 25 1 19 -24 -9 -41 30 -20 47 14 12 16
12 9 -1 -4 -8 6 0 22 18 31 35 52 92 51 138 0 25 -2 26 -9 9 -6 -14 -9 -15
-10 -5 -1 8 -8 -10 -16 -40 -8 -30 -21 -64 -29 -76 -20 -32 -52 -36 -70 -11
-8 12 -15 16 -15 9 0 -6 9 -21 20 -32 11 -11 16 -20 11 -20 -5 0 -14 7 -21 15
-11 14 -14 13 -25 -2 -12 -16 -15 -14 -34 17 -11 19 -21 28 -22 20 0 -8 -9 3
-19 25 -10 22 -19 33 -20 25 -1 -8 -6 -4 -10 10 -6 20 -8 21 -8 5 0 -11 3 -29
8 -40 l9 -20 1 20 c1 18 2 18 11 -3 10 -26 3 -46 -12 -37 -5 3 -16 32 -26 63
-15 50 -17 54 -24 32 -6 -23 -7 -22 -9 10 -2 33 -3 33 -10 10 -7 -23 -8 -23
-9 9 -1 28 -4 33 -21 28 -11 -3 -20 -1 -20 4 0 13 -37 48 -44 42 -3 -4 -9 8
-12 26 -6 28 -8 30 -19 14 -12 -16 -14 -14 -20 20 -4 20 -11 34 -16 32 -8 -6
-22 32 -18 51 4 20 -2 35 -11 29 -12 -8 -13 -3 0 29 7 20 6 24 -5 19 -8 -3
-15 0 -15 6 0 6 4 11 9 11 5 0 11 7 14 14 4 11 1 13 -11 9 -12 -4 -10 2 8 22
21 24 22 27 6 21 -20 -7 -20 -6 -1 14 19 20 19 21 -1 14 -15 -5 -12 0 10 24
34 37 25 43 -13 10 l-26 -23 21 25 c12 14 19 31 17 38 -10 26 118 135 131 113
3 -5 18 -7 33 -5 58 6 138 -63 163 -142 l10 -29 -3 33 c-2 21 1 32 9 32 8 0
11 6 8 15 -4 8 -1 15 6 15 6 0 8 5 5 10 -3 6 -2 10 4 10 6 0 17 -12 25 -27 8
-16 15 -23 16 -18 1 30 -45 78 -96 102 -58 26 -83 54 -93 104 l-6 31 -130
-133 c-72 -74 -133 -133 -137 -132 -9 3 -68 -78 -110 -150 -18 -30 -51 -84
-73 -119 -36 -58 -39 -67 -37 -126 4 -79 -19 -158 -61 -214 -19 -24 -39 -53
-45 -63 -11 -20 -11 -20 -12 0 0 12 20 54 44 95 27 44 47 91 50 119 4 25 9 60
12 76 5 23 3 27 -6 19 -6 -6 -14 -38 -17 -70 -3 -32 -10 -67 -15 -77 -8 -16
-12 -15 -52 12 -47 33 -109 97 -126 133 -6 12 12 -2 40 -32 47 -52 50 -54 56
-32 5 15 9 20 14 12 5 -8 10 -2 14 14 3 14 10 26 15 26 5 0 19 16 31 36 35 55
34 34 -2 -34 -17 -34 -29 -64 -27 -66 2 -3 21 29 42 70 20 42 32 72 25 68 -8
-5 -9 -2 -4 11 6 18 6 18 -12 2 -28 -25 -37 -21 -71 29 -38 58 -45 96 -37 190
3 41 2 74 -3 74 -4 0 -11 -44 -15 -99 -7 -101 2 -169 30 -222 8 -16 12 -29 9
-29 -3 0 -18 25 -32 56 -25 55 -25 61 -21 218 4 119 1 177 -9 221 -10 41 -13
82 -8 130 9 87 9 106 0 176 -7 56 5 122 26 134 5 4 4 -6 -2 -22 -8 -21 -8 -53
1 -124 10 -73 10 -104 1 -129 -6 -18 -10 -54 -10 -79 l2 -46 8 40 c4 22 14 63
22 92 13 43 14 68 4 152 -8 75 -8 110 0 131 6 17 8 30 3 30 -17 0 -59 -62 -66
-95 -3 -20 -10 -37 -14 -40 -12 -7 9 63 31 107 21 40 54 68 140 116 31 18 87
62 124 98 79 77 100 88 218 104 74 10 95 17 122 41 17 16 36 25 40 21 5 -4 5
1 2 11 -4 11 -3 16 3 12 6 -3 10 -1 10 5 0 22 64 50 115 50 49 0 86 -12 69
-23 -5 -2 -34 -10 -65 -16 -31 -7 -65 -19 -75 -27 -15 -12 -11 -12 21 2 76 31
194 13 212 -32 3 -8 13 -13 22 -12 10 2 15 -3 13 -14 -4 -24 28 -38 74 -33 22
2 33 1 26 -2 -10 -4 -9 -10 5 -27 18 -21 18 -21 -2 -5 -45 36 -47 29 -6 -14
25 -26 47 -44 49 -42 3 3 -3 14 -13 25 -10 11 -15 20 -11 20 4 0 2 10 -5 21
-10 20 -9 21 24 17 20 -2 33 0 31 4 -3 4 5 8 18 9 23 0 23 0 -2 10 -14 6 -43
8 -65 6 -22 -3 -34 -2 -26 0 10 4 8 10 -10 24 -13 10 -18 19 -11 19 7 0 10 5
6 11 -4 8 0 8 15 0 25 -14 28 -22 4 -15 -15 5 -15 3 1 -10 22 -18 36 -21 36
-7 0 6 12 6 30 1 18 -5 30 -5 30 1 0 5 -10 9 -22 9 -23 0 -113 49 -105 57 3 2
19 -3 36 -12 17 -8 31 -13 31 -11 0 11 -46 29 -80 32 l-35 3 25 -20 25 -20
-43 17 c-24 9 -45 14 -48 12 -2 -3 16 -13 41 -23 26 -9 44 -20 41 -23 -4 -3 1
-13 10 -23 29 -32 -6 -32 -47 0 -21 18 -39 27 -39 22 0 -6 -12 1 -27 15 -14
13 -38 27 -52 30 -45 10 -47 12 -11 14 30 1 32 3 15 11 -13 6 14 8 82 6 85 -2
107 -6 130 -23 68 -50 90 -56 185 -49 63 5 98 4 121 -6 33 -13 147 -88 147
-97 0 -17 -78 14 -130 52 -34 25 -67 46 -73 46 -6 0 9 -13 34 -29 24 -16 58
-41 74 -55 l30 -26 -28 10 c-16 6 -37 15 -48 20 -10 6 -19 8 -19 6 0 -3 17
-14 38 -25 27 -15 32 -20 17 -21 -15 0 -17 -2 -6 -9 9 -6 10 -11 2 -15 -15 -9
-69 19 -116 63 -23 20 -17 12 12 -17 34 -35 45 -51 31 -47 -14 5 -18 4 -14 -4
17 -26 -19 -7 -63 34 -68 64 -70 56 -3 -11 32 -31 51 -53 44 -49 -16 8 -54 -4
-47 -16 10 -15 -48 11 -75 34 l-25 22 25 -29 c14 -15 34 -32 45 -36 19 -8 19
-9 -2 -9 -13 -1 -37 17 -65 47 -60 67 -82 77 -28 13 55 -66 65 -71 124 -66 41
3 46 2 36 -11 -18 -21 -6 -17 53 15 69 39 148 61 215 61 46 0 60 -5 89 -30 18
-16 38 -30 43 -30 6 0 10 -5 10 -12 0 -7 12 -25 27 -40 18 -19 22 -28 12 -28
-9 0 -5 -8 11 -20 19 -15 22 -22 12 -29 -11 -6 -10 -9 3 -15 9 -3 14 -10 11
-15 -3 -5 1 -14 9 -21 20 -17 19 -31 -2 -23 -14 5 -12 0 6 -20 14 -15 21 -27
17 -27 -5 0 -2 -8 5 -17 12 -15 12 -16 -5 -10 -16 6 -17 5 -7 -7 9 -11 10 -20
1 -35 -8 -16 -8 -26 0 -39 9 -14 10 -13 4 8 -3 14 -3 22 1 18 13 -12 16 -110
3 -102 -8 5 -9 1 -4 -12 18 -42 27 -93 34 -190 6 -75 13 -108 28 -130 23 -33
145 -290 165 -347 12 -33 11 -39 -1 -47 -8 -5 -26 -7 -40 -4 -14 4 -35 6 -46
6 -14 0 -21 6 -20 17 1 10 -5 15 -18 13 -14 -3 -17 1 -12 14 6 15 4 15 -10 3
-10 -8 -25 -13 -36 -11 -10 2 -18 -2 -18 -8 0 -7 -6 -10 -14 -7 -7 3 -24 -1
-35 -10 -29 -20 -35 -12 -34 48 1 44 -1 49 -13 37 -8 -8 -28 -49 -43 -91 l-29
-76 43 29 c27 19 45 26 52 19 5 -5 24 -11 41 -12 18 -1 32 -5 32 -9 0 -5 6 -8
13 -8 6 0 28 -21 47 -46 32 -44 33 -47 16 -60 -12 -8 -25 -10 -35 -4 -9 4 -32
7 -51 6 -19 -2 -38 2 -41 7 -8 12 -69 -90 -69 -115 0 -10 12 -32 28 -49 l27
-31 -3 46 c-2 25 -8 46 -14 46 -5 0 -8 12 -6 27 3 26 6 28 47 24 56 -4 90 -16
97 -36 8 -19 -12 -44 -43 -56 -30 -11 -33 -62 -4 -57 22 3 78 -60 88 -100 3
-14 1 -47 -6 -74 -17 -73 -14 -91 20 -137 17 -24 28 -49 26 -56 -3 -7 0 -18 6
-24 9 -9 8 -11 -5 -6 -25 10 -22 -10 5 -29 l22 -17 -25 7 -25 6 23 -17 c12 -9
22 -21 22 -27 0 -7 -6 -6 -15 2 -8 7 -15 8 -15 2 0 -5 7 -15 15 -22 8 -7 15
-17 15 -23 0 -5 -8 -3 -18 6 -29 27 -38 20 -11 -9 l24 -26 -28 13 c-30 13 -48
6 -29 -13 9 -9 12 -9 12 1 0 11 3 11 15 1 8 -7 15 -17 15 -22 0 -6 -5 -6 -14
1 -11 9 -13 6 -10 -16 l4 -28 -11 27 c-5 14 -17 29 -25 32 -11 4 -14 -4 -15
-37 l-1 -42 -13 40 -13 40 -2 -35 -2 -35 -14 35 c-8 20 -12 24 -9 10 15 -67
16 -88 6 -94 -6 -4 -15 11 -22 40 -9 35 -14 43 -21 30 -5 -10 -5 -23 2 -35 5
-11 10 -37 9 -58 l0 -38 -20 53 c-12 29 -23 52 -25 49 -2 -2 3 -20 11 -40 24
-57 20 -102 -11 -126 -44 -34 -78 -25 -109 28 -5 9 0 8 18 -3 23 -16 26 -16
41 -1 26 27 -4 107 -44 120 -22 7 -31 31 -35 90 -3 50 -14 87 -24 81 -4 -3 -7
4 -7 15 0 10 5 19 10 19 5 0 2 8 -7 18 -19 21 -23 42 -5 24 12 -12 50 -16 60
-6 9 8 -30 92 -52 114 -17 17 -20 17 -31 4 -10 -12 -10 -25 -2 -55 8 -31 8
-37 -2 -29 -7 6 -15 28 -19 50 -3 22 -22 71 -42 108 -35 65 -35 69 -29 143 l7
77 -54 42 c-72 57 -116 123 -109 164 3 16 -11 46 -19 41 -5 -3 -14 11 -20 30
-6 19 -15 37 -19 39 -4 3 7 -39 25 -92 26 -76 29 -91 14 -72 l-20 25 0 -38 c0
-23 4 -36 10 -32 6 3 7 -1 4 -10 -4 -9 2 -29 15 -45 25 -35 27 -48 4 -29 -24
20 -54 94 -46 115 4 12 3 15 -5 10 -16 -10 -14 -47 3 -70 18 -24 19 -40 3 -30
-8 4 -10 3 -5 -2 5 -5 14 -9 20 -9 5 0 12 -6 15 -14 3 -9 0 -11 -9 -6 -8 5 -5
-1 5 -13 11 -12 22 -20 24 -17 8 8 52 -36 52 -52 0 -7 5 -13 10 -13 6 0 10
-29 10 -66 0 -36 5 -75 11 -87 10 -20 10 -21 -5 -7 -9 9 -23 52 -31 99 -14 81
-29 116 -45 106 -5 -3 -11 -1 -15 5 -4 6 -10 8 -15 5 -13 -8 -57 51 -65 85 -4
18 -2 44 5 59 6 16 10 46 8 67 l-4 39 -8 -30 c-5 -16 -17 -38 -27 -48 -22 -21
-23 -29 -8 -98 9 -39 22 -64 55 -99 49 -53 64 -85 57 -123 -7 -34 16 -69 67
-103 22 -14 45 -39 52 -55 15 -34 29 -33 42 3 6 17 4 35 -9 61 -9 20 -20 35
-24 33 -3 -2 -5 19 -4 47 2 29 0 46 -3 40 -11 -25 -24 -13 -24 22 0 46 -20 93
-64 151 -51 66 -44 78 11 19 62 -67 76 -90 85 -139 7 -40 7 -40 4 8 -3 33 -1
45 5 34 5 -9 8 -46 7 -81 -3 -59 0 -69 29 -110 32 -46 36 -60 34 -109 -1 -19
-6 -28 -18 -28 -13 0 -14 3 -5 12 7 7 12 16 12 21 0 4 -11 -4 -25 -19 -20 -22
-27 -24 -39 -14 -9 6 -18 20 -21 30 -5 17 -125 128 -125 116 0 -3 29 -34 65
-69 66 -64 76 -88 54 -128 -15 -29 -32 -12 -25 25 5 28 0 37 -47 84 -29 29
-56 49 -60 46 -8 -8 -10 7 -7 48 1 22 -2 27 -14 22 -9 -3 -16 -16 -16 -28 0
-33 11 -66 21 -61 14 9 87 -64 98 -98 9 -26 8 -29 -2 -16 -33 42 -97 111 -97
104 0 -4 15 -25 34 -45 19 -21 40 -49 47 -62 12 -23 -78 72 -94 98 -13 22 -24
16 -36 -18 -18 -52 -34 -21 -20 40 17 72 -5 127 -76 187 -66 57 -89 103 -81
161 6 43 5 43 -19 32 -55 -25 -47 -117 19 -220 53 -82 61 -106 51 -145 -7 -25
-9 -23 -19 27 -12 59 -52 134 -66 125 -5 -3 -12 0 -16 6 -5 8 -3 9 6 4 8 -5
11 -3 8 5 -4 14 -38 24 -38 11 0 -14 32 -51 40 -46 5 3 12 0 16 -6 4 -8 3 -9
-4 -5 -7 4 -12 3 -12 -3 0 -15 18 -23 22 -9 3 7 7 5 11 -6 4 -11 3 -15 -4 -10
-8 4 -9 -1 -4 -17 8 -27 2 -21 -37 31 -31 44 -58 95 -58 112 0 10 2 10 9 -1 7
-11 10 -11 15 0 3 8 4 5 1 -7 -4 -14 0 -21 10 -21 11 0 13 6 8 21 -10 27 -10
105 0 133 7 18 5 21 -13 16 -11 -3 -20 -12 -20 -19 0 -8 -4 -14 -9 -14 -5 0
-23 -13 -40 -29 -27 -25 -31 -36 -31 -80 0 -68 21 -116 75 -171 38 -38 86
-130 68 -130 -3 0 0 -6 6 -13 7 -9 8 -24 2 -43 -7 -24 -3 -39 16 -74 l24 -45
-5 40 -6 40 20 -43 c23 -50 35 -55 26 -9 -4 20 -3 27 3 18 7 -11 10 -10 14 5
3 10 3 -1 1 -26 -5 -39 -2 -49 21 -75 15 -17 38 -47 52 -69 23 -35 28 -38 59
-33 25 4 34 2 34 -8 0 -8 8 -18 17 -24 27 -15 12 -21 -30 -11 -38 8 -38 8 -62
-41 -14 -26 -25 -53 -25 -58 0 -6 33 -46 73 -89 199 -217 204 -224 281 -385
40 -85 79 -157 85 -161 17 -11 14 -2 -24 63 -19 32 -51 96 -70 142 -19 45 -62
124 -95 174 -38 58 -63 107 -66 131 -3 21 -2 35 3 29 4 -5 16 -14 26 -20 22
-12 101 -155 85 -155 -7 0 -7 -4 1 -14 7 -8 33 -63 60 -123 46 -106 108 -213
123 -213 4 0 -12 30 -36 68 -24 37 -60 108 -81 157 -21 50 -42 94 -47 100 -11
13 -10 27 2 20 6 -4 33 -52 60 -108 51 -103 117 -204 127 -193 3 3 -8 21 -24
39 -16 19 -56 85 -88 148 -32 63 -72 134 -90 159 -43 60 -53 83 -18 41 15 -19
47 -57 70 -84 23 -27 44 -60 48 -75 16 -65 118 -202 150 -202 3 0 -22 37 -56
82 -34 45 -76 113 -95 149 -18 37 -38 70 -44 74 -5 3 -10 11 -10 17 0 21 32
-16 94 -111 35 -53 91 -122 124 -153 l60 -58 88 56 c470 294 783 745 901 1299
26 123 27 144 27 385 0 239 -1 263 -27 382 -34 159 -67 263 -128 407 -118 273
-309 531 -537 722 -368 308 -826 473 -1294 467 -68 0 -139 -3 -158 -5z m285
-663 c3 -6 -1 -7 -9 -4 -18 7 -21 14 -7 14 6 0 13 -4 16 -10z m118 -17 c-7 -2
-21 -2 -30 0 -10 3 -4 5 12 5 17 0 24 -2 18 -5z m298 -119 c-29 -13 -56 -24
-60 -23 -9 1 93 49 104 48 6 0 -14 -11 -44 -25z m-1445 -436 c-19 -215 -19
-238 4 -324 24 -89 23 -102 -17 -206 -15 -41 -16 -53 -5 -94 7 -26 22 -61 33
-78 l21 -31 -26 30 c-29 34 -66 123 -66 160 0 13 -4 27 -10 30 -5 3 -10 -3
-10 -14 0 -12 -4 -21 -9 -21 -10 0 -17 33 -30 150 -6 47 -15 100 -20 119 -6
19 -9 36 -7 38 8 8 56 -154 56 -189 0 -43 14 -57 29 -29 18 33 12 87 -15 157
-23 57 -26 74 -20 132 17 170 22 212 29 218 11 11 8 -125 -4 -191 -10 -54 -8
-66 22 -159 l32 -101 -16 -64 c-10 -35 -15 -66 -13 -68 6 -6 46 86 46 106 0
10 -11 60 -25 112 -28 108 -31 169 -10 254 8 33 14 77 15 98 0 20 5 37 11 37
8 0 9 -22 5 -72z m-104 -55 c-3 -26 -18 -74 -34 -108 l-29 -60 6 53 c4 41 50
162 61 162 1 0 -1 -21 -4 -47z m518 -359 c-25 -51 -37 -187 -20 -238 16 -49
52 -91 106 -122 37 -22 45 -32 50 -66 4 -21 17 -55 30 -74 13 -19 23 -40 21
-46 -1 -7 15 -17 36 -22 20 -5 37 -13 37 -17 0 -12 -76 17 -110 41 -19 13 -34
36 -40 62 -6 22 -14 38 -17 35 -3 -3 0 -21 7 -41 14 -42 67 -92 109 -101 38
-8 41 -25 5 -25 -27 0 -57 13 -90 39 -11 9 -5 2 13 -16 34 -35 30 -49 -10 -34
-36 14 -67 59 -67 97 0 44 -16 51 -29 12 -32 -91 15 -158 110 -158 37 0 29
-20 -9 -21 l-27 -1 25 -8 c19 -6 10 -8 -36 -9 -78 -1 -122 26 -143 86 -13 37
-13 47 1 90 l16 48 1 -66 c1 -50 6 -73 21 -91 21 -27 76 -55 87 -44 3 3 0 6
-8 6 -9 0 -30 14 -48 32 -30 29 -33 37 -29 78 3 26 12 60 20 78 16 31 16 31
-16 50 l-32 19 -18 -71 c-30 -118 -31 -138 -4 -166 13 -14 39 -37 58 -52 26
-21 30 -28 17 -28 -54 0 -118 67 -120 125 -1 38 -17 26 -17 -13 0 -63 62 -127
136 -139 34 -6 35 -7 15 -15 -12 -4 -35 -6 -49 -3 -20 4 -17 1 8 -8 l35 -14
-30 -11 c-27 -9 -27 -11 -7 -11 42 -2 12 -21 -32 -21 -67 0 -141 26 -170 61
-28 33 -35 93 -15 131 16 30 0 36 -21 8 -22 -28 -26 -80 -9 -113 l11 -22 -22
21 c-14 14 -24 38 -27 66 -6 50 12 92 71 165 29 36 35 54 46 130 6 48 16 97
20 108 13 31 12 -86 -1 -164 -10 -60 -16 -70 -60 -112 -62 -57 -64 -73 -4 -22
79 66 90 92 88 213 l-1 105 15 -45 c20 -62 13 -198 -12 -236 -15 -23 -15 -26
-2 -16 34 28 47 121 33 227 -3 22 -8 60 -11 85 l-5 45 13 -40 c19 -56 45 -94
78 -111 43 -22 48 -17 8 10 -48 33 -69 87 -69 176 0 81 14 101 18 27 4 -61 22
-116 53 -162 33 -47 34 -37 3 18 -46 84 -45 231 4 306 32 50 38 48 12 -5z m46
-273 c24 -41 25 -44 6 -27 -35 31 -62 118 -61 194 l2 67 13 -94 c10 -65 22
-108 40 -140z m509 -202 c-3 -13 -15 -35 -26 -49 -22 -27 -22 -25 7 37 20 45
29 50 19 12z m-265 -24 c0 -5 -5 -3 -10 5 -5 8 -10 20 -10 25 0 6 5 3 10 -5 5
-8 10 -19 10 -25z m320 -175 c-6 -42 -8 -47 -9 -20 -1 34 8 84 14 78 2 -2 0
-28 -5 -58z m484 5 c5 0 15 -10 23 -22 24 -36 -7 -22 -57 27 -40 38 -41 41
-10 19 19 -13 39 -24 44 -24z m-1407 -124 c23 -28 49 -45 81 -55 l47 -15 -38
0 c-88 -2 -141 55 -152 164 l-5 50 16 -52 c9 -29 32 -70 51 -92z m584 112 c13
-16 12 -17 -3 -4 -17 13 -22 21 -14 21 2 0 10 -8 17 -17z m310 -8 c6 13 7 3 3
-28 -5 -46 -3 -53 46 -127 30 -46 53 -93 56 -116 l5 -39 -19 40 c-10 22 -31
54 -45 71 -42 50 -67 113 -66 169 1 28 4 41 7 30 l5 -20 8 20z m419 -56 c0 -6
-4 -7 -10 -4 -5 3 -10 11 -10 16 0 6 5 7 10 4 6 -3 10 -11 10 -16z m-5 -59 c3
-5 1 -10 -4 -10 -6 0 -11 5 -11 10 0 6 2 10 4 10 3 0 8 -4 11 -10z m-775 -93
c0 -3 -8 -4 -17 -2 -10 2 -20 4 -23 4 -3 1 -11 11 -19 24 -13 20 -13 21 2 8
10 -8 17 -9 17 -3 0 6 -4 14 -10 17 -5 3 -10 11 -10 16 0 5 14 -6 30 -24 17
-19 30 -37 30 -40z m15 -37 c10 -11 16 -20 13 -20 -3 0 -13 9 -23 20 -10 11
-16 20 -13 20 3 0 13 -9 23 -20z m472 -67 c-3 -10 -5 -2 -5 17 0 19 2 27 5 18
2 -10 2 -26 0 -35z m-1227 17 c0 -11 -7 -20 -15 -20 -18 0 -19 12 -3 28 16 16
18 15 18 -8z m1500 -15 c19 -19 32 -35 29 -35 -3 0 -20 16 -39 35 -19 19 -32
35 -29 35 3 0 20 -16 39 -35z m-1522 -23 c2 -7 -3 -12 -12 -12 -9 0 -16 7 -16
16 0 17 22 14 28 -4z m1269 -14 c-3 -8 -6 -5 -6 6 -1 11 2 17 5 13 3 -3 4 -12
1 -19z m-1283 -37 c-3 -3 -12 3 -20 13 -8 11 -14 15 -14 9 0 -7 4 -15 10 -18
13 -8 9 -55 -5 -55 -6 0 -17 6 -25 13 -7 6 -6 1 3 -13 21 -31 22 -46 1 -30
-39 33 -38 65 5 113 15 18 16 18 34 -4 9 -12 15 -25 11 -28z m1594 -2 c-3 -8
-7 -3 -11 10 -4 17 -3 21 5 13 5 -5 8 -16 6 -23z m-877 -6 l24 -27 -24 15
c-14 9 -27 21 -29 27 -6 19 3 14 29 -15z m760 -48 c10 -16 19 -36 19 -44 0 -8
-18 14 -40 48 -22 34 -40 65 -40 69 0 9 34 -32 61 -73z m-675 27 c-4 -3 -14 2
-24 12 -16 18 -16 18 6 6 13 -6 21 -14 18 -18z m728 0 c25 -48 29 -96 12 -135
-8 -21 -11 -37 -6 -37 5 0 7 -6 4 -13 -3 -9 -22 -13 -62 -12 -71 2 -92 11 -93
39 -1 19 -2 19 -9 -4 l-8 -25 -1 28 c-1 38 18 58 42 43 15 -9 21 -7 33 8 10
14 14 16 14 5 0 -26 -17 -42 -39 -36 -12 3 -19 1 -15 -4 8 -14 40 -11 54 6 7
8 10 26 7 40 -3 16 0 24 7 22 19 -6 19 -48 -1 -70 -16 -18 -16 -20 -1 -14 9 3
18 1 20 -5 8 -24 48 31 47 65 l-1 32 -8 -33 c-9 -38 -26 -60 -37 -48 -4 4 0
12 10 17 9 6 17 20 16 32 0 21 -1 21 -10 2 -8 -16 -8 -15 -4 8 3 15 1 36 -5
47 -11 21 -4 70 11 70 5 0 15 -13 23 -28z m-98 -58 c16 -24 9 -54 -12 -54 -8
0 -14 10 -14 21 0 19 2 20 17 8 15 -13 15 -12 6 6 -15 27 -53 61 -53 47 0 -6
5 -14 10 -17 6 -3 10 -12 10 -18 -1 -24 -24 29 -26 58 l-2 30 25 -30 c13 -17
31 -39 39 -51z m-1482 -37 c-8 -23 -21 -21 -34 3 -12 22 -1 26 20 8 8 -7 7 -4
-3 8 -24 29 -21 43 3 18 13 -12 18 -27 14 -37z m731 23 c16 -16 25 -30 22 -30
-14 0 -55 31 -61 46 -9 23 8 16 39 -16z m1058 -19 c5 -25 23 -62 40 -83 32
-39 31 -64 -1 -35 -10 10 -21 14 -25 11 -13 -13 -48 61 -43 93 3 21 0 33 -10
37 -22 9 -16 28 8 24 18 -2 24 -12 31 -47z m-61 -23 c5 -44 3 -46 -12 -17 -7
12 -8 33 -4 52 8 33 10 28 16 -35z m120 2 c-6 -39 -8 -36 -15 20 -5 38 -4 42
7 28 7 -10 11 -31 8 -48z m-31 -13 c-8 -8 -11 -5 -11 9 0 27 14 41 18 19 2 -9
-1 -22 -7 -28z m57 14 c-2 -17 -1 -28 4 -25 4 3 8 -4 8 -15 0 -26 -17 -27 -25
-2 -6 19 3 71 12 71 3 0 3 -13 1 -29z m-2111 -63 c-3 -7 -5 -2 -5 12 0 14 2
19 5 13 2 -7 2 -19 0 -25z m2029 -48 c17 0 44 -34 53 -66 12 -42 -3 -74 -34
-74 -24 0 -25 1 -10 23 21 33 3 80 -41 108 -34 21 -54 47 -54 70 0 7 17 -4 38
-24 21 -20 43 -37 48 -37z m-117 15 c0 -5 -4 -3 -9 5 -5 8 -9 22 -9 30 0 16
17 -16 18 -35z m-11 -63 c-3 -21 -9 -46 -13 -56 -6 -14 -5 -17 3 -12 6 4 16
21 22 39 l10 32 -5 -35 c-6 -36 9 -32 18 5 4 16 5 15 6 -5 2 -42 -33 -63 -68
-41 -11 7 -11 13 3 32 9 13 16 37 15 54 l-1 30 -8 -33 c-4 -19 -13 -39 -19
-45 -7 -7 -5 8 4 38 8 28 15 55 15 60 0 6 5 2 11 -8 6 -10 9 -35 7 -55z
m-1691 -7 c15 -13 23 -25 16 -25 -7 0 -25 11 -40 25 -15 13 -23 25 -16 25 7 0
25 -11 40 -25z m636 -9 c26 -15 47 -30 47 -33 0 -2 -6 -1 -12 2 -7 4 -4 -1 6
-9 14 -12 16 -16 5 -16 -22 0 -110 60 -104 70 3 5 0 7 -8 4 -8 -3 -18 -1 -21
5 -12 19 39 6 87 -23z m1291 -95 c-8 -9 -23 50 -17 66 5 13 9 7 14 -22 4 -22
5 -42 3 -44z m-414 -33 c-1 -30 -3 -38 -9 -28 -8 14 -4 70 5 70 2 0 4 -19 4
-42z m-705 -57 c-7 -6 -65 50 -65 63 0 5 16 -5 35 -24 19 -18 32 -36 30 -39z
m735 32 c0 -32 -5 -28 -14 10 -4 19 -3 26 4 22 5 -3 10 -18 10 -32z m30 -31
c0 -21 -2 -24 -10 -12 -13 20 -13 53 0 45 6 -3 10 -18 10 -33z m50 -24 c0 -13
3 -34 6 -48 4 -18 3 -21 -4 -10 -16 25 -25 80 -13 80 6 0 11 -10 11 -22z
m-744 -39 c47 -28 43 -34 -6 -9 -22 11 -40 23 -40 25 0 9 13 5 46 -16z"/>
<path d="M1629 2662 c5 -10 18 -25 27 -33 11 -9 9 -2 -6 19 -26 35 -36 42 -21
14z"/>
<path d="M1760 2642 c0 -10 50 -35 57 -28 3 2 -9 12 -26 21 -17 8 -31 12 -31
7z"/>
<path d="M1694 2606 c11 -9 24 -16 30 -16 12 0 7 5 -24 19 -24 11 -24 11 -6
-3z"/>
<path d="M1652 2570 c0 -19 2 -27 5 -17 2 9 2 25 0 35 -3 9 -5 1 -5 -18z"/>
<path d="M1836 2575 c4 -16 11 -37 15 -45 6 -10 7 -4 3 15 -4 17 -11 37 -15
45 -6 10 -7 4 -3 -15z"/>
<path d="M1758 2573 c7 -3 16 -2 19 1 4 3 -2 6 -13 5 -11 0 -14 -3 -6 -6z"/>
<path d="M1800 2510 c5 -18 12 -35 16 -39 9 -9 -7 53 -17 63 -5 5 -4 -5 1 -24z"/>
<path d="M1642 2510 c0 -14 2 -19 5 -12 2 6 2 18 0 25 -3 6 -5 1 -5 -13z"/>
<path d="M1875 2490 c10 -11 20 -20 23 -20 3 0 -3 9 -13 20 -10 11 -20 20 -23
20 -3 0 3 -9 13 -20z"/>
<path d="M1525 2400 c-3 -6 1 -7 9 -4 18 7 21 14 7 14 -6 0 -13 -4 -16 -10z"/>
<path d="M1581 2342 c-1 -38 4 -49 33 -78 19 -19 40 -34 48 -34 7 0 -1 9 -18
19 -40 25 -47 36 -55 91 l-6 45 -2 -43z"/>
<path d="M1512 2331 c-17 -47 -15 -55 13 -89 27 -32 116 -67 143 -57 12 4 8
11 -19 26 -51 31 -78 69 -79 109 0 28 -3 31 -10 18 -19 -32 16 -92 75 -130 27
-18 28 -19 5 -13 -62 17 -100 62 -110 129 l-6 41 -12 -34z"/>
<path d="M2816 2327 c3 -10 9 -15 12 -12 3 3 0 11 -7 18 -10 9 -11 8 -5 -6z"/>
<path d="M1116 1925 c4 -8 10 -15 15 -15 4 0 6 7 3 15 -4 8 -10 15 -15 15 -4
0 -6 -7 -3 -15z"/>
<path d="M2660 1904 c1 -16 29 -60 29 -44 0 8 -6 24 -14 34 -8 11 -15 16 -15
10z"/>
<path d="M1680 1636 c0 -3 9 -10 20 -16 11 -6 20 -8 20 -6 0 3 -9 10 -20 16
-11 6 -20 8 -20 6z"/>
<path d="M1992 4040 c0 -14 2 -19 5 -12 2 6 2 18 0 25 -3 6 -5 1 -5 -13z"/>
<path d="M2058 4053 c-10 -2 -18 -8 -18 -13 0 -8 57 6 69 16 6 5 -29 3 -51 -3z"/>
<path d="M2185 4045 c51 -19 67 -18 35 0 -14 8 -36 14 -50 14 -20 0 -17 -3 15
-14z"/>
<path d="M1957 4043 c-4 -3 -7 -11 -7 -17 0 -6 5 -5 12 2 6 6 9 14 7 17 -3 3
-9 2 -12 -2z"/>
<path d="M9010 2720 l0 -1330 910 0 910 0 0 245 0 245 -572 2 -573 3 -3 318
-2 317 535 0 535 0 0 250 0 250 -535 0 -535 0 0 270 0 270 560 0 560 0 0 245
0 245 -895 0 -895 0 0 -1330z"/>
<path d="M2071 4029 c-13 -5 -21 -12 -18 -15 3 -3 14 -1 25 5 40 21 89 13 128
-21 21 -18 35 -26 32 -18 -15 45 -108 73 -167 49z"/>
<path d="M2112 4007 c-22 -13 -22 -13 17 -35 22 -13 49 -35 60 -50 20 -27 20
-27 21 -4 0 13 -4 21 -9 18 -4 -3 -19 6 -31 19 -13 14 -19 25 -13 25 6 0 16
-7 23 -15 10 -12 16 -13 24 -5 8 8 3 18 -17 36 -32 27 -42 29 -75 11z m59 -7
c10 -6 19 -16 19 -22 0 -7 -4 -7 -14 1 -7 6 -20 10 -27 8 -8 -2 -10 -2 -5 1 4
2 2 8 -5 13 -21 13 7 12 32 -1z"/>
<path d="M2525 4010 c3 -5 13 -10 21 -10 8 0 39 -22 68 -50 58 -55 87 -68 40
-19 -45 48 -149 112 -129 79z"/>
<path d="M4850 2685 l0 -1335 345 0 345 0 0 1335 0 1335 -345 0 -345 0 0
-1335z"/>
<path d="M5820 2690 l0 -1330 330 0 330 0 2 821 3 820 385 -477 c212 -263 390
-479 395 -480 6 -2 186 213 400 478 l390 481 3 -821 2 -822 325 0 325 0 0
1330 0 1330 -293 0 -293 0 -429 -536 c-345 -432 -430 -533 -440 -522 -7 7
-200 248 -428 536 l-417 522 -295 0 -295 0 0 -1330z"/>
<path d="M2032 4000 c2 -8 24 -22 49 -32 49 -21 44 -13 -15 22 -24 15 -37 18
-34 10z"/>
<path d="M2642 3997 c9 -7 26 -24 38 -38 l21 -24 -17 28 c-9 15 -26 32 -38 38
-19 9 -19 9 -4 -4z"/>
<path d="M1908 3995 c-3 -3 -25 -10 -49 -15 l-44 -9 48 4 c49 5 100 24 66 25
-9 0 -18 -2 -21 -5z"/>
<path d="M1930 3979 c-21 -11 -66 -21 -110 -24 -50 -3 -67 -2 -50 4 l25 9 -25
1 c-28 1 -116 -36 -107 -45 3 -3 17 0 31 8 20 10 45 11 118 4 l93 -10 54 -53
c30 -29 52 -56 48 -59 -4 -4 -15 -1 -24 7 -14 11 -13 8 2 -10 11 -12 33 -29
50 -36 16 -7 24 -14 17 -14 -28 -2 -78 30 -99 64 -13 19 -23 38 -23 41 0 4 10
-1 23 -12 21 -18 21 -18 -2 8 -38 44 -54 24 -20 -26 32 -49 51 -66 88 -83 14
-6 21 -12 14 -12 -30 -2 -65 22 -98 68 -43 59 -91 82 -173 80 l-57 -2 58 -7
c75 -10 100 -30 31 -25 -47 3 -44 -6 6 -19 19 -6 21 -5 10 3 -19 13 0 14 20 1
10 -6 11 -10 3 -10 -7 0 2 -15 20 -32 18 -18 21 -23 7 -12 -34 29 -65 44 -87
43 -15 0 -14 -2 4 -9 33 -14 47 -46 34 -82 -6 -17 -9 -33 -7 -35 2 -2 9 11 15
29 11 30 13 31 23 14 10 -17 8 -33 -12 -131 -8 -35 -8 -33 -5 20 2 33 6 71 9
85 4 14 -1 7 -10 -15 -11 -28 -14 -58 -11 -99 4 -38 2 -54 -4 -45 -15 25 -10
-12 6 -41 8 -14 15 -50 16 -80 l2 -55 7 50 7 50 3 -50 c3 -47 4 -48 7 -12 2
21 -3 60 -12 87 -11 33 -13 58 -8 80 l8 32 11 -41 c6 -22 7 -38 3 -35 -19 11
-8 -9 14 -26 18 -15 22 -28 22 -77 0 -32 -7 -74 -15 -93 -14 -34 -14 -34 -21
-10 -5 16 -7 19 -8 8 -2 -29 -18 -21 -32 16 -13 33 -14 30 -14 -52 0 -53 -5
-95 -13 -107 -11 -18 -11 -17 -5 10 11 41 7 163 -6 178 -6 8 -6 18 -1 27 14
22 11 81 -6 115 -8 17 -11 21 -8 10 4 -11 9 -41 11 -67 5 -40 2 -50 -20 -72
-32 -32 -42 -32 -72 -2 l-24 24 2 -98 c2 -104 9 -115 25 -40 l10 45 1 -52 c1
-35 -7 -67 -24 -105 -27 -57 -32 -97 -14 -115 7 -7 7 -13 0 -17 -19 -12 -36
69 -23 113 15 48 15 93 0 178 l-11 68 -26 -22 c-14 -12 -41 -35 -60 -51 -28
-23 -34 -37 -38 -78 -3 -27 1 -69 8 -94 l13 -45 6 57 c3 31 11 63 18 70 10 10
12 1 8 -47 l-5 -60 10 63 c13 73 33 85 25 15 l-6 -48 14 35 c12 29 15 31 15
12 1 -13 -6 -36 -14 -52 -9 -17 -13 -30 -11 -30 10 0 33 55 39 91 3 19 2 51
-3 70 l-8 34 -2 -40 c-1 -22 -4 -34 -7 -27 -3 7 -2 34 2 60 9 60 23 37 31 -50
5 -53 2 -74 -20 -132 -25 -67 -31 -117 -18 -164 6 -21 13 -15 69 60 34 46 57
86 52 89 -6 4 -2 22 11 46 11 23 27 72 34 109 9 43 14 57 15 38 1 -17 -6 -53
-14 -80 -19 -64 -20 -80 -1 -65 8 7 20 11 28 10 7 -1 57 41 110 94 54 54 93
97 89 97 -5 0 -47 -35 -93 -77 l-83 -77 80 83 c69 73 86 98 34 54 -15 -13 -17
-7 -15 74 1 78 -2 92 -23 121 -20 28 -22 41 -17 80 4 26 7 55 7 65 0 9 4 17
10 17 9 0 15 -58 11 -113 -1 -16 2 -36 8 -45 8 -13 9 -10 4 12 -13 55 24 2 65
-94 10 -24 10 -24 4 5 -3 17 -21 59 -39 94 -37 69 -38 89 -3 50 l21 -24 -15
26 c-15 25 -21 50 -18 79 1 8 20 -18 42 -58 33 -58 42 -85 45 -135 3 -57 3
-58 -6 -20 -8 40 -36 103 -45 103 -2 0 5 -21 17 -47 16 -36 19 -59 15 -100 -3
-29 -2 -53 3 -53 5 0 35 23 67 51 70 62 192 149 290 208 41 24 70 48 66 54 -3
5 -1 7 5 3 14 -9 205 81 197 93 -3 6 -18 8 -33 5 -36 -7 -146 52 -183 98 -27
35 -109 86 -109 69 0 -5 10 -13 21 -16 12 -4 50 -33 85 -64 34 -31 77 -67 94
-80 47 -35 28 -38 -24 -2 -25 16 -46 26 -46 22 0 -5 16 -18 36 -30 38 -23 37
-34 -5 -55 -21 -11 -43 -13 -92 -6 -74 9 -123 30 -140 61 -6 11 -13 18 -17 15
-9 -10 40 -57 75 -72 18 -8 51 -14 73 -14 22 0 40 -2 40 -5 0 -2 -11 -15 -25
-29 -14 -14 -25 -21 -25 -16 0 6 -4 10 -10 10 -5 0 -6 -7 -3 -17 4 -11 3 -14
-5 -9 -7 4 -13 17 -13 29 -1 17 -3 15 -9 -8 l-8 -30 -1 27 c0 15 -4 29 -9 32
-4 2 -6 -14 -5 -37 2 -42 2 -42 -6 -7 -10 46 -23 69 -60 103 -17 16 -32 34
-32 40 -3 24 -5 67 -3 67 1 0 13 -17 27 -38 17 -26 44 -47 82 -66 67 -32 80
-30 26 3 -20 13 -48 39 -60 57 -13 19 -27 31 -31 29 -5 -3 -28 14 -52 38 -24
24 -33 31 -20 17 12 -14 22 -30 22 -35 0 -5 -10 1 -22 12 -13 11 -39 28 -58
38 -19 10 -49 28 -67 41 -37 28 -55 28 -103 3z m91 -8 c13 -10 47 -30 74 -44
28 -13 57 -33 66 -43 20 -22 18 -62 -2 -75 -10 -6 -10 -9 -1 -9 26 0 10 -19
-21 -25 -38 -7 -112 9 -123 27 -5 7 -2 9 7 6 8 -3 25 -8 39 -12 21 -5 21 -4
-4 8 -22 10 -136 120 -136 131 0 4 38 3 64 -2 25 -5 27 -7 12 -15 -12 -6 -22
-6 -32 3 -32 26 -16 1 26 -41 24 -25 41 -37 37 -27 -4 10 8 2 27 -17 18 -20
40 -36 47 -36 8 0 1 9 -16 19 -31 19 -89 109 -64 98 45 -18 48 -15 9 7 -25 14
-54 25 -64 26 -14 0 -17 3 -9 11 13 13 143 -49 187 -90 23 -21 27 -22 18 -6
-9 19 -153 105 -174 105 -4 0 -8 5 -8 10 0 15 15 12 41 -9z m-3 -97 c-4 -3
-12 5 -18 18 -12 22 -12 22 6 6 10 -10 15 -20 12 -24z m-54 -134 c39 -14 78
-12 103 5 23 16 96 17 123 1 12 -7 13 -6 3 5 -15 16 -17 29 -3 29 15 0 49 -74
55 -122 8 -52 -9 -32 -19 24 -4 21 -10 40 -15 42 -4 3 -2 -19 6 -48 9 -36 10
-61 4 -77 -9 -21 -10 -19 -10 19 -1 39 -23 112 -35 112 -3 0 2 -16 10 -35 16
-39 19 -121 4 -130 -6 -4 -10 16 -10 52 0 39 -5 66 -16 79 -15 19 -16 19 -8
-1 4 -11 9 -42 11 -70 l3 -50 -14 48 c-14 50 -50 97 -74 97 -9 0 -6 -10 12
-31 14 -17 26 -36 26 -42 0 -7 4 -6 10 3 7 10 8 0 6 -35 -3 -41 -2 -44 4 -15
l7 35 2 -41 c0 -22 -6 -49 -14 -60 -15 -19 -15 -19 -9 1 4 15 1 13 -10 -5 -15
-25 -15 -24 -17 30 l-2 55 -6 -55 -6 -55 -6 56 c-5 51 -43 129 -56 115 -3 -2
5 -18 17 -34 21 -29 46 -157 28 -146 -4 3 -8 0 -8 -5 0 -6 -4 -11 -10 -11 -5
0 -10 20 -10 44 0 25 -5 57 -11 73 -15 41 -52 93 -66 93 -20 0 -15 20 5 21 9
0 0 7 -20 16 -21 8 -38 21 -38 28 0 6 -9 20 -20 30 -11 10 -20 23 -20 29 0 5
15 -7 34 -27 18 -20 45 -41 60 -47z m565 16 c-10 -9 -89 -46 -89 -41 0 6 72
44 84 45 5 0 7 -2 5 -4z m-664 -96 c-9 -41 -17 -33 -9 9 4 17 9 30 11 27 3 -2
2 -19 -2 -36z m264 6 c-3 -3 -11 5 -18 17 -13 21 -12 21 5 5 10 -10 16 -20 13
-22z m-114 -65 c8 -18 15 -41 15 -50 -1 -9 -7 0 -14 20 -7 20 -23 54 -35 75
-22 37 -22 38 -2 14 12 -14 28 -40 36 -59z m-270 -340 c-3 -26 -15 -65 -26
-88 -11 -23 -18 -47 -14 -53 3 -6 -3 -21 -13 -35 l-20 -25 -6 24 c-7 29 -1 48
33 100 22 34 26 50 25 115 -1 75 -1 76 13 42 10 -23 12 -50 8 -80z"/>
<path d="M2109 3866 c19 -20 39 -36 45 -36 13 0 -34 49 -59 62 -12 6 -6 -4 14
-26z"/>
<path d="M2055 3868 c7 -16 54 -42 63 -34 3 3 -4 9 -14 12 -10 4 -27 14 -37
22 -16 14 -17 14 -12 0z"/>
<path d="M2040 3695 c0 -2 11 -21 25 -41 30 -44 34 -33 5 14 -18 29 -30 40
-30 27z"/>
<path d="M2262 3960 c-14 -29 -15 -37 -5 -28 16 13 36 58 30 65 -3 2 -14 -14
-25 -37z"/>
<path d="M2523 3952 c-9 -6 0 -21 31 -51 31 -30 48 -41 58 -35 10 7 6 17 -20
44 l-34 35 27 -37 c15 -21 23 -38 17 -38 -15 0 -73 70 -67 81 7 11 4 11 -12 1z"/>
<path d="M2318 3925 c17 -14 33 -25 38 -25 4 0 -3 11 -16 25 -13 14 -30 25
-38 25 -7 0 0 -11 16 -25z"/>
<path d="M2471 3947 c2 -1 15 -11 29 -22 l25 -20 -19 23 c-11 12 -24 22 -29
22 -6 0 -8 -1 -6 -3z"/>
<path d="M2287 3915 c12 -9 32 -33 44 -55 12 -21 28 -41 36 -44 19 -8 16 0 -9
27 -13 13 -31 38 -40 55 -9 18 -25 32 -35 32 -15 0 -14 -2 4 -15z"/>
<path d="M1648 3892 c-61 -36 -121 -90 -113 -102 9 -14 25 -12 25 3 0 21 61
74 108 95 24 11 40 22 35 25 -5 3 -30 -6 -55 -21z"/>
<path d="M1790 3910 c31 -4 65 -12 77 -18 26 -14 58 -5 44 12 -6 7 -43 12 -93
13 -76 1 -78 0 -28 -7z"/>
<path d="M2221 3894 c0 -11 3 -14 6 -6 3 7 2 16 -1 19 -3 4 -6 -2 -5 -13z"/>
<path d="M2287 3849 c51 -67 122 -111 147 -90 7 6 17 7 21 3 5 -4 5 -1 0 7 -6
10 -2 12 16 7 16 -5 12 0 -11 13 -42 24 -62 27 -34 6 18 -14 17 -15 -11 -9
-42 8 -75 34 -108 82 -17 25 -36 42 -48 42 -16 0 -11 -10 28 -61z"/>
<path d="M1655 3871 c-28 -12 -85 -66 -85 -81 0 -7 18 6 40 29 22 22 47 41 55
41 8 0 15 5 15 10 0 6 -1 10 -2 9 -2 0 -12 -4 -23 -8z"/>
<path d="M1685 3850 c-21 -8 -98 -88 -115 -120 -12 -22 -13 -43 -2 -37 4 3 5
-17 4 -44 -2 -27 -1 -57 3 -67 4 -9 8 -33 10 -52 2 -19 4 -39 5 -45 8 -35 -3
-78 -27 -107 -27 -32 -27 -32 -4 -17 40 25 61 76 61 146 0 47 -4 63 -14 63
-17 0 -26 22 -25 58 l1 27 8 -25 c8 -25 8 -25 9 5 2 31 29 100 30 76 1 -15 94
84 97 103 3 23 -20 44 -41 36z"/>
<path d="M2870 3845 c-102 -21 -219 -71 -350 -150 -30 -19 -77 -46 -104 -62
-80 -46 -252 -162 -266 -178 -25 -30 20 -190 57 -202 9 -3 9 5 1 31 -6 19 -15
33 -19 30 -10 -6 -23 60 -16 78 3 7 6 -3 7 -22 2 -30 4 -27 10 17 13 88 19
102 57 128 21 14 41 25 46 25 11 0 -3 -48 -29 -102 -14 -27 -24 -65 -24 -88 0
-41 26 -118 36 -107 3 3 1 14 -5 25 -20 37 -12 97 19 157 18 35 30 72 30 96 0
40 13 52 24 23 15 -38 5 -89 -29 -150 -38 -67 -42 -102 -19 -149 8 -16 12 -21
8 -10 -15 51 -15 93 0 123 18 35 44 57 33 28 -22 -58 -14 -61 13 -6 28 57 32
75 31 144 0 61 3 76 12 67 15 -15 13 -144 -2 -183 -8 -22 -8 -28 2 -28 10 0
11 -14 3 -65 -7 -49 -6 -75 4 -107 8 -24 13 -46 12 -50 -1 -4 5 -23 13 -42 8
-19 15 -46 14 -58 l0 -23 -9 23 c-17 40 -20 23 -16 -80 3 -58 2 -83 -2 -58
l-7 45 -7 -59 c-8 -67 3 -97 59 -159 35 -39 57 -81 69 -132 l7 -30 9 36 c7 27
5 46 -6 74 -9 21 -19 36 -22 32 -3 -3 2 -19 10 -36 9 -16 16 -38 16 -48 0 -10
-9 1 -20 25 -11 24 -35 62 -53 85 -46 57 -70 105 -27 54 17 -20 35 -35 39 -32
11 6 55 -43 79 -90 12 -22 21 -34 22 -27 0 7 5 10 10 7 6 -3 10 -1 10 6 0 8 4
8 15 -1 8 -7 15 -9 15 -4 0 4 10 -1 23 -12 12 -11 39 -29 59 -39 37 -19 58
-45 36 -45 -7 0 -6 -5 2 -15 7 -8 17 -12 23 -8 5 3 7 2 4 -4 -8 -13 27 -65 39
-56 5 5 6 4 1 -1 -4 -5 7 -24 25 -43 23 -24 37 -31 54 -27 19 5 23 1 27 -23 2
-16 5 -6 6 25 0 29 8 69 16 89 13 31 13 34 0 23 -12 -10 -15 -10 -15 1 0 10
-3 10 -12 1 -18 -18 -28 -14 -28 11 0 13 22 51 50 86 28 34 50 68 50 74 0 7
-9 1 -20 -13 -11 -14 -18 -18 -15 -9 12 32 -27 15 -62 -28 -38 -46 -60 -53
-24 -7 15 19 18 31 11 44 -7 13 -6 21 4 29 7 6 15 9 17 6 3 -2 5 4 5 15 0 10
-4 16 -8 14 -4 -3 -8 1 -8 8 0 10 -3 9 -11 -2 -9 -13 -10 -13 -6 0 2 8 9 15
16 15 12 0 31 23 31 39 0 6 -7 1 -15 -10 -11 -15 -15 -16 -15 -4 0 9 -6 6 -14
-9 -13 -24 -34 -13 -21 12 4 6 -2 1 -13 -12 -11 -14 -17 -31 -14 -39 4 -12 7
-12 18 3 12 16 13 16 11 -3 0 -11 -4 -19 -7 -17 -4 2 -7 -3 -7 -11 0 -11 6 -9
24 8 13 12 23 17 23 11 0 -6 -16 -25 -35 -42 -20 -17 -32 -31 -27 -31 4 0 13
5 19 11 7 7 12 5 17 -8 4 -9 4 -14 0 -11 -4 4 -15 3 -25 -3 -13 -6 -19 -6 -19
0 0 6 -8 8 -17 5 -10 -4 -5 5 11 18 l29 25 -21 15 c-12 8 -19 18 -15 22 4 3 7
15 8 26 2 19 1 19 -18 3 -19 -17 -19 -17 -12 7 7 22 6 23 -9 11 -15 -12 -16
-12 -9 5 6 17 5 18 -12 4 -16 -12 -15 -9 3 17 13 18 27 35 32 38 6 4 10 11 10
17 0 7 -9 2 -21 -11 -12 -12 -23 -21 -25 -19 -7 7 8 48 16 43 5 -3 11 -1 14 4
7 11 -13 9 -32 -3 -11 -7 -12 -4 -3 13 7 11 8 21 2 21 -5 0 -11 -7 -15 -15 -3
-8 -11 -15 -18 -15 -6 0 0 13 15 28 27 28 38 53 14 34 -8 -7 -18 -7 -27 -1
-11 7 -12 11 -3 17 15 10 0 37 -16 28 -6 -4 -15 3 -21 18 -6 16 -17 26 -30 26
-37 0 -16 35 72 124 90 89 101 104 44 61 -18 -14 -38 -25 -44 -25 -14 0 -9 27
8 43 11 9 11 8 0 -7 -12 -16 -9 -15 18 4 27 20 30 25 16 33 -12 7 -24 1 -46
-19 l-31 -29 17 27 c10 14 24 29 32 32 18 7 18 26 0 26 -8 0 -30 -19 -50 -42
-20 -24 -36 -38 -36 -32 0 6 17 30 37 55 20 24 26 34 12 21 -14 -12 -28 -20
-31 -16 -4 3 -12 -4 -19 -17 -11 -22 -12 -22 -25 -4 -8 10 -14 26 -14 34 0 14
2 14 11 1 8 -12 9 -10 4 7 -7 24 13 68 53 121 13 17 21 32 16 32 -4 0 5 14 22
32 31 33 16 30 -26 -6 -25 -21 -25 -21 -7 0 28 34 19 40 -13 9 -17 -16 -28
-35 -26 -41 3 -7 -2 -18 -10 -24 -18 -16 -18 -11 2 58 16 54 15 133 -1 217 -6
29 -6 29 10 10 16 -20 17 -20 13 4 -4 28 18 41 25 14 4 -15 5 -14 6 4 0 12 5
24 10 28 11 6 20 -34 25 -120 2 -33 2 -16 2 38 -1 73 1 97 11 97 7 0 14 -12
14 -27 l1 -28 8 30 c6 28 8 26 16 -25 5 -30 8 -61 7 -69 0 -7 3 -9 7 -5 5 5 3
38 -4 74 -8 36 -12 67 -11 69 10 10 26 -15 32 -52 6 -38 7 -40 15 -17 5 16 6
5 3 -30 -3 -41 -2 -47 4 -25 9 30 9 30 11 -10 2 -24 4 -31 7 -18 4 19 -3 66
-23 146 -10 41 13 34 32 -10 10 -25 14 -57 12 -96 -3 -32 -1 -52 4 -44 4 8 9
51 10 96 1 44 5 81 9 81 8 0 24 -45 33 -90 3 -14 3 4 1 39 -4 54 -3 62 10 51
7 -6 19 -28 26 -47 14 -44 58 -110 95 -143 21 -19 20 -15 -7 15 -29 34 -71
118 -93 188 -3 9 -9 17 -13 16 -4 0 -37 -7 -73 -14z m4 -41 c10 -38 0 -41 -12
-5 -6 17 -7 31 -3 31 5 0 12 -12 15 -26z m-277 -185 c5 -71 -2 -105 -41 -200
-5 -10 -2 -16 8 -16 21 0 54 84 65 164 6 52 9 58 10 28 0 -23 -6 -67 -14 -99
-8 -32 -13 -61 -10 -66 6 -9 -25 -93 -31 -87 -3 2 3 21 11 42 9 20 14 39 12
42 -3 2 -14 -19 -25 -48 -15 -42 -20 -48 -25 -30 -3 11 -10 21 -15 21 -19 0
-34 -70 -33 -157 0 -47 -1 -84 -3 -82 -2 2 -9 30 -15 61 -8 47 -7 67 9 125 11
37 20 72 20 77 0 22 -12 -7 -31 -75 -19 -69 -20 -102 -2 -164 4 -15 2 -17 -6
-9 -25 23 -24 115 2 224 37 151 40 187 23 245 -16 50 -14 67 5 48 15 -15 23
-151 11 -200 -8 -33 -7 -43 3 -43 14 0 55 130 55 175 0 17 -4 45 -10 64 -10
37 -4 59 12 43 5 -5 12 -43 15 -83z m-48 17 c11 -45 15 -114 6 -104 -3 2 -9
29 -15 59 -6 30 -13 62 -16 72 -3 9 -1 17 4 17 5 0 15 -20 21 -44z m-80 -131
c1 -27 -3 -67 -8 -87 -5 -22 -5 -36 0 -32 5 3 9 12 9 21 0 9 3 14 6 11 3 -3 0
-26 -7 -49 -6 -24 -14 -77 -18 -117 -3 -40 -10 -73 -15 -75 -5 -1 -16 18 -24
42 -14 42 -13 54 8 163 17 86 21 136 17 185 l-6 68 19 -40 c11 -23 19 -61 19
-90z m138 3 c-3 -8 -6 -5 -6 6 -1 11 2 17 5 13 3 -3 4 -12 1 -19z m-304 -38
c-3 -11 -10 -23 -16 -27 -5 -3 -8 -2 -5 3 3 5 8 17 11 27 9 24 16 22 10 -3z
m234 -12 c-3 -8 -6 -5 -6 6 -1 11 2 17 5 13 3 -3 4 -12 1 -19z m139 -7 c-9
-10 -30 -42 -46 -72 -17 -30 -28 -43 -25 -29 4 14 18 44 31 68 14 23 22 42 19
42 -3 0 -4 4 0 10 3 5 12 7 21 3 13 -5 13 -7 0 -22z m-489 -3 c-3 -8 -6 -5 -6
6 -1 11 2 17 5 13 3 -3 4 -12 1 -19z m300 -10 c-3 -7 -5 -2 -5 12 0 14 2 19 5
13 2 -7 2 -19 0 -25z m442 -806 c-13 -15 -28 -31 -33 -37 -4 -5 -3 0 3 13 6
12 9 22 6 22 -12 0 -46 -91 -39 -103 5 -8 3 -8 -9 1 -15 13 -15 18 -2 48 8 19
29 52 46 74 28 34 34 38 42 24 6 -11 2 -23 -14 -42z m-69 19 c0 -5 -12 -16
-26 -26 -25 -16 -25 -16 -15 3 9 17 19 25 39 31 1 1 2 -3 2 -8z m61 -182 c-6
-16 -10 -18 -10 -7 -1 22 12 55 16 42 2 -6 -1 -22 -6 -35z"/>
<path d="M2426 3289 c-4 -23 -5 -44 -2 -46 2 -2 7 14 11 37 4 23 5 43 2 46 -2
3 -7 -14 -11 -37z"/>
<path d="M2920 2655 c-7 -9 -11 -17 -9 -20 3 -2 10 5 17 15 14 24 10 26 -8 5z"/>
<path d="M2190 3841 c0 -5 5 -13 10 -16 6 -3 10 -2 10 4 0 5 -4 13 -10 16 -5
3 -10 2 -10 -4z"/>
<path d="M3010 3828 c10 -13 26 -32 35 -43 20 -25 9 0 -17 38 -11 15 -24 27
-29 27 -5 0 0 -10 11 -22z"/>
<path d="M1790 3766 c0 -13 -7 -43 -15 -66 -8 -23 -15 -54 -14 -69 1 -20 3
-17 10 13 13 55 17 55 17 1 0 -26 2 -49 5 -51 2 -3 4 40 5 96 0 55 -2 100 -4
100 -2 0 -4 -11 -4 -24z"/>
<path d="M3022 3780 c0 -8 6 -31 13 -50 7 -19 13 -28 13 -20 0 8 -6 31 -13 50
-7 19 -13 28 -13 20z"/>
<path d="M1480 3769 c0 -5 5 -7 10 -4 6 3 10 8 10 11 0 2 -4 4 -10 4 -5 0 -10
-5 -10 -11z"/>
<path d="M1500 3735 c-13 -22 -23 -56 -25 -92 l-4 -58 8 53 c5 29 11 55 14 58
2 2 7 -45 11 -106 6 -98 5 -115 -14 -156 -23 -53 -20 -66 10 -39 38 34 45 84
26 187 -14 74 -15 99 -6 123 9 23 13 26 20 15 8 -13 10 -12 10 3 0 9 -7 17
-16 17 -14 0 -14 3 -4 15 8 9 8 15 2 15 -6 0 -20 -16 -32 -35z"/>
<path d="M1753 3711 c-13 -32 -23 -65 -23 -72 1 -8 12 15 26 50 13 36 23 68
22 72 -2 4 -13 -18 -25 -50z"/>
<path d="M2892 3740 c0 -14 2 -19 5 -12 2 6 2 18 0 25 -3 6 -5 1 -5 -13z"/>
<path d="M3065 3740 c16 -51 64 -175 64 -164 1 12 -58 177 -66 184 -3 3 -2 -6
2 -20z"/>
<path d="M1681 3732 c-6 -12 -11 -29 -11 -39 1 -11 7 -4 16 16 16 37 12 55 -5
23z"/>
<path d="M1425 3720 c-29 -32 -36 -88 -23 -182 9 -65 9 -96 0 -124 -7 -23 -7
-33 -1 -27 19 19 26 78 17 148 -11 87 -3 143 23 175 16 19 19 20 12 5 -4 -11
-8 -83 -8 -160 0 -140 0 -140 -33 -196 -38 -66 -40 -98 -11 -194 17 -60 19
-87 15 -190 -6 -113 -5 -123 18 -164 l23 -45 18 27 c16 26 16 28 -9 79 -19 38
-26 66 -25 107 l1 56 13 -66 c13 -65 42 -136 51 -126 3 2 -5 23 -17 46 -15 30
-19 50 -15 74 10 43 17 200 8 163 -7 -28 -8 -26 -30 35 -31 91 -37 146 -18
197 8 24 22 49 29 57 14 13 32 104 23 113 -3 2 -8 -18 -13 -45 -8 -47 -8 -46
-13 37 -5 78 1 155 14 198 8 25 -27 26 -49 2z"/>
<path d="M1706 3733 c-9 -9 -7 -71 2 -77 14 -8 29 59 16 72 -7 6 -15 8 -18 5z"/>
<path d="M2763 3660 c0 -41 2 -58 4 -37 2 20 2 54 0 75 -2 20 -4 3 -4 -38z"/>
<path d="M2693 3640 c0 -47 2 -66 4 -42 2 23 2 61 0 85 -2 23 -4 4 -4 -43z"/>
<path d="M2895 3690 c-4 -12 -5 -24 -2 -27 3 -2 8 5 12 17 4 12 5 24 2 27 -3
2 -8 -5 -12 -17z"/>
<path d="M1621 3652 c0 -33 6 -71 18 -100 11 -26 22 -60 26 -77 8 -38 23 -55
45 -55 16 0 30 19 30 41 0 5 -22 33 -49 63 -48 53 -54 68 -64 151 -2 17 -5 6
-6 -23z"/>
<path d="M2662 3680 c0 -14 2 -19 5 -12 2 6 2 18 0 25 -3 6 -5 1 -5 -13z"/>
<path d="M1641 3663 c-1 -26 9 -44 49 -88 28 -30 50 -52 50 -47 0 5 -14 21
-31 38 -35 34 -50 57 -60 99 l-7 30 -1 -32z"/>
<path d="M1538 3610 c13 -117 8 -186 -13 -212 -19 -21 -19 -22 -1 -8 44 35 58
123 32 202 -8 24 -17 52 -20 63 -3 11 -2 -9 2 -45z"/>
<path d="M2673 3615 c0 -22 2 -30 4 -17 2 12 2 30 0 40 -3 9 -5 -1 -4 -23z"/>
<path d="M2808 3627 c-3 -19 -2 -25 4 -19 6 6 8 18 6 28 -3 14 -5 12 -10 -9z"/>
<path d="M1700 3624 c0 -13 18 -39 24 -34 2 3 -2 14 -10 24 -8 11 -14 16 -14
10z"/>
<path d="M1740 3605 c0 -5 5 -17 10 -25 5 -8 10 -10 10 -5 0 6 -5 17 -10 25
-5 8 -10 11 -10 5z"/>
<path d="M1841 3564 c0 -11 3 -14 6 -6 3 7 2 16 -1 19 -3 4 -6 -2 -5 -13z"/>
<path d="M2661 3554 c0 -11 3 -14 6 -6 3 7 2 16 -1 19 -3 4 -6 -2 -5 -13z"/>
<path d="M2219 3429 c-20 -65 -21 -78 -9 -118 7 -25 13 -51 13 -58 1 -19 67
-80 67 -62 0 9 -9 24 -21 35 -51 46 -63 129 -33 218 9 26 14 50 11 53 -3 3
-16 -28 -28 -68z"/>
<path d="M2743 3474 l-28 -26 33 22 c29 20 39 30 28 30 -3 0 -18 -12 -33 -26z"/>
<path d="M1642 3470 c0 -14 2 -19 5 -12 2 6 2 18 0 25 -3 6 -5 1 -5 -13z"/>
<path d="M2775 3460 c-3 -5 -2 -10 4 -10 5 0 13 5 16 10 3 6 2 10 -4 10 -5 0
-13 -4 -16 -10z"/>
<path d="M1946 3435 c-3 -9 -6 -26 -5 -38 1 -16 4 -12 10 12 10 34 6 55 -5 26z"/>
<path d="M2100 3395 c-2 -36 -3 -38 -11 -15 -7 20 -8 16 -5 -19 5 -54 46 -108
103 -136 23 -11 54 -31 70 -45 42 -37 26 -19 -54 62 -57 59 -73 81 -78 113 -3
22 -10 49 -15 60 -7 16 -9 12 -10 -20z m7 -67 c-3 -8 -6 -5 -6 6 -1 11 2 17 5
13 3 -3 4 -12 1 -19z"/>
<path d="M2679 3413 c-13 -16 -12 -17 4 -4 16 13 21 21 13 21 -2 0 -10 -8 -17
-17z"/>
<path d="M2688 3383 c-17 -20 -41 -63 -35 -63 3 0 16 18 31 40 28 42 29 52 4
23z"/>
<path d="M2040 3375 c-15 -19 -8 -77 15 -112 20 -30 32 -24 15 7 -9 18 -9 21
0 15 10 -6 11 3 6 41 -9 58 -18 71 -36 49z"/>
<path d="M2351 3349 c-6 -18 -11 -43 -11 -55 0 -31 -20 -31 -21 -1 -1 18 -2
18 -6 4 -7 -28 6 -74 17 -58 5 10 10 4 15 -18 3 -17 11 -33 16 -36 5 -4 5 5
-1 20 -13 33 -13 90 0 134 12 45 6 52 -9 10z"/>
<path d="M2690 3340 c-12 -16 -19 -30 -16 -30 2 0 14 14 26 30 12 17 19 30 16
30 -2 0 -14 -13 -26 -30z"/>
<path d="M1486 3325 c-3 -8 -1 -15 4 -15 6 0 10 7 10 15 0 8 -2 15 -4 15 -2 0
-6 -7 -10 -15z"/>
<path d="M2905 3301 l-40 -19 43 5 c28 4 42 2 42 -6 0 -6 -7 -11 -15 -11 -9 0
-12 -6 -9 -15 4 -10 -5 -20 -29 -30 -20 -8 -39 -19 -42 -25 -4 -6 -11 -8 -16
-5 -11 7 -12 -5 -1 -23 7 -10 14 -10 38 3 16 8 44 15 62 15 25 0 32 -4 32 -20
0 -17 4 -19 28 -14 15 4 29 8 31 10 2 2 13 -1 23 -7 16 -9 19 -18 15 -46 -4
-24 -2 -33 6 -30 7 2 14 12 16 23 2 10 16 33 31 51 25 28 27 36 19 70 -5 21
-9 41 -9 46 0 4 -9 16 -20 27 -27 27 -147 28 -205 1z"/>
<path d="M1452 3275 c0 -22 6 -58 14 -80 9 -27 12 -30 8 -10 -4 17 -10 53 -14
80 -7 48 -8 49 -8 10z"/>
<path d="M2361 3267 c-1 -26 33 -107 44 -107 3 0 -1 13 -10 30 -8 16 -19 46
-24 67 -8 33 -9 34 -10 10z"/>
<path d="M2080 3272 c0 -6 12 -20 28 -31 16 -12 21 -20 13 -21 -8 0 3 -14 26
-30 22 -17 48 -46 57 -65 9 -19 19 -35 21 -35 7 0 -7 34 -26 61 -10 14 -16 28
-13 31 2 3 -20 26 -51 52 -30 26 -55 43 -55 38z"/>
<path d="M1351 3233 c-1 -7 11 -47 25 -90 25 -75 29 -138 10 -188 -5 -12 -2
-10 8 5 24 38 19 107 -13 200 -16 47 -30 79 -30 73z"/>
<path d="M2340 3178 c2 -16 39 -109 39 -98 1 24 -19 89 -29 95 -6 4 -10 5 -10
3z"/>
<path d="M2237 3145 c9 -34 9 -91 0 -180 l-6 -60 11 50 c16 72 16 191 0 207
-11 11 -12 8 -5 -17z"/>
<path d="M2798 3163 c-10 -2 -18 -8 -18 -12 0 -5 -18 -21 -40 -36 -52 -36 -40
-55 34 -55 41 0 63 7 111 36 57 34 79 54 70 62 -2 2 -19 -8 -38 -24 -19 -15
-38 -26 -42 -25 -4 2 -11 -3 -16 -10 -4 -7 -28 -13 -53 -14 -46 -2 -61 7 -30
19 8 3 12 10 9 16 -3 5 1 10 9 10 8 0 20 9 26 20 11 20 9 21 -22 13z"/>
<path d="M2380 3155 c0 -5 5 -17 10 -25 5 -8 10 -10 10 -5 0 6 -5 17 -10 25
-5 8 -10 11 -10 5z"/>
<path d="M2303 3124 c16 -59 16 -81 2 -129 -19 -67 -7 -174 25 -216 22 -30 26
-44 10 -34 -14 9 -13 5 10 -40 19 -37 50 -57 50 -31 0 7 -18 43 -41 80 -52 86
-64 154 -43 237 16 62 12 133 -8 145 -6 4 -8 -1 -5 -12z m71 -424 l7 -25 -15
25 c-17 28 -21 50 -7 35 5 -6 12 -21 15 -35z"/>
<path d="M2936 3095 c-38 -25 -75 -45 -81 -45 -6 0 -17 -12 -23 -26 -7 -14 -8
-23 -2 -19 5 3 10 -1 10 -10 0 -10 5 -13 12 -9 7 5 9 2 5 -9 -4 -12 -2 -14 11
-10 29 11 32 27 6 43 l-24 17 27 14 c16 8 34 20 41 27 28 26 49 31 83 22 19
-6 34 -10 35 -10 0 0 1 14 1 30 0 41 -18 39 -101 -15z"/>
<path d="M1908 3119 c-10 -5 -30 -30 -45 -56 -21 -36 -27 -62 -31 -123 -5 -81
15 -166 43 -190 10 -8 8 4 -6 39 -10 28 -19 69 -19 92 0 45 24 127 52 177 10
18 16 37 13 42 -6 10 19 20 49 20 23 0 55 -28 75 -67 19 -38 3 -26 -24 17 -18
28 -32 40 -48 39 l-22 0 21 -9 c28 -11 40 -30 15 -23 -22 6 -38 -36 -18 -49 8
-5 5 -8 -8 -8 -19 -1 -19 -2 1 -10 12 -5 26 -22 32 -40 10 -28 9 -32 -14 -40
-14 -6 -32 -10 -39 -10 -42 0 -64 -130 -27 -163 16 -15 17 -13 18 27 1 53 32
97 96 136 52 32 56 45 38 112 -17 60 -55 98 -98 98 -21 0 -45 -5 -54 -11z"/>
<path d="M1805 3090 c-3 -5 -2 -10 4 -10 5 0 13 5 16 10 3 6 2 10 -4 10 -5 0
-13 -4 -16 -10z"/>
<path d="M2050 3099 c0 -4 7 -23 15 -42 8 -20 15 -49 15 -63 0 -15 3 -25 6
-21 10 10 -5 92 -21 113 -8 11 -15 16 -15 13z"/>
<path d="M2274 3048 c-1 -29 -4 -73 -7 -98 l-6 -45 10 40 c15 59 23 155 13
155 -5 0 -9 -24 -10 -52z"/>
<path d="M2341 3063 c-1 -24 4 -43 9 -43 12 0 12 24 0 60 -7 21 -8 19 -9 -17z"/>
<path d="M3087 3080 c-20 -28 -22 -44 -5 -34 8 5 9 2 5 -10 -4 -9 -3 -15 2
-12 12 8 21 -18 16 -45 -4 -21 -4 -21 16 -3 12 11 22 17 23 14 1 -3 10 2 19
12 15 14 15 17 1 22 -8 3 -13 9 -11 13 3 5 -1 14 -9 20 -10 10 -16 9 -27 -8
-13 -18 -15 -18 -21 -3 -4 10 -2 22 4 28 8 8 9 6 5 -6 -10 -25 2 -22 16 3 6
13 7 19 1 15 -6 -3 -12 -1 -14 6 -3 7 -11 2 -21 -12z m43 -50 c-6 -11 -13 -20
-16 -20 -2 0 0 9 6 20 6 11 13 20 16 20 2 0 0 -9 -6 -20z"/>
<path d="M1521 3055 c-23 -52 -26 -122 -6 -165 10 -22 22 -40 26 -40 13 0 22
47 12 62 -4 7 -10 49 -13 93 -6 77 -6 79 -19 50z"/>
<path d="M1566 3065 c-3 -9 -5 -31 -5 -48 1 -27 3 -24 9 13 8 48 6 61 -4 35z"/>
<path d="M2153 3005 c0 -33 2 -45 4 -27 2 18 2 45 0 60 -2 15 -4 0 -4 -33z"/>
<path d="M2382 3040 c0 -14 2 -19 5 -12 2 6 2 18 0 25 -3 6 -5 1 -5 -13z"/>
<path d="M3015 3040 c-3 -5 1 -10 10 -10 9 0 13 5 10 10 -3 6 -8 10 -10 10 -2
0 -7 -4 -10 -10z"/>
<path d="M2132 2988 c-3 -54 -11 -71 -28 -57 -11 9 -14 7 -14 -10 0 -14 -4
-20 -12 -15 -8 5 -9 0 -5 -15 4 -18 3 -20 -8 -11 -11 9 -16 6 -21 -15 -5 -19
-10 -23 -17 -16 -26 26 -42 11 -59 -51 -18 -70 -10 -103 21 -93 11 3 25 -3 36
-15 10 -11 26 -20 36 -20 10 0 21 -4 24 -10 3 -5 11 -10 17 -10 6 0 5 7 -3 17
-12 15 -12 16 4 10 14 -5 12 3 -11 36 -24 34 -29 49 -25 80 6 46 23 49 23 4 0
-30 49 -117 66 -117 3 0 2 5 -2 12 -4 7 -3 8 5 4 6 -4 9 -11 6 -16 -3 -5 -1
-11 5 -15 6 -3 20 -25 31 -47 19 -36 20 -46 9 -81 -6 -21 -9 -42 -6 -45 3 -3
6 2 6 12 0 9 4 15 9 11 21 -12 35 87 20 132 -7 21 -13 43 -14 48 -1 6 -13 35
-28 65 -18 37 -27 71 -27 104 0 42 -2 47 -15 36 -8 -7 -15 -23 -15 -37 0 -14
-4 -21 -10 -18 -19 11 -10 -32 15 -80 28 -52 27 -73 -1 -30 -13 20 -19 23 -26
13 -7 -9 -8 -7 -4 7 3 11 2 34 -3 51 -6 23 -4 45 10 85 11 31 18 71 16 94 l-4
40 -1 -37z m-75 -200 c-3 -8 -6 -5 -6 6 -1 11 2 17 5 13 3 -3 4 -12 1 -19z
m33 -100 c0 -5 -4 -8 -8 -8 -9 0 -42 53 -42 67 1 10 50 -49 50 -59z m58 16
c-4 -3 -12 5 -18 18 -12 22 -12 22 6 6 10 -10 15 -20 12 -24z"/>
<path d="M2181 2989 c-6 -18 -11 -37 -10 -43 0 -6 7 7 15 28 8 22 12 41 10 43
-2 2 -9 -10 -15 -28z"/>
<path d="M3163 2988 c-20 -26 -26 -41 -15 -34 12 7 36 46 29 46 -3 0 -9 -6
-14 -12z"/>
<path d="M2380 2980 c0 -5 5 -10 10 -10 6 0 10 5 10 10 0 6 -4 10 -10 10 -5 0
-10 -4 -10 -10z"/>
<path d="M3021 2974 c0 -11 3 -14 6 -6 3 7 2 16 -1 19 -3 4 -6 -2 -5 -13z"/>
<path d="M1572 2950 c0 -19 2 -27 5 -17 2 9 2 25 0 35 -3 9 -5 1 -5 -18z"/>
<path d="M3166 2955 c-20 -30 -20 -34 -1 -31 19 3 25 9 30 35 5 28 -9 27 -29
-4z"/>
<path d="M3200 2935 c-7 -9 -10 -18 -7 -21 3 -3 10 4 17 15 13 25 8 27 -10 6z"/>
<path d="M2185 2900 c-8 -38 1 -83 31 -142 13 -26 24 -54 24 -63 0 -8 5 -15
10 -15 14 0 12 16 -5 50 -9 17 -13 30 -10 30 2 0 13 -17 24 -37 11 -21 20 -33
21 -27 0 6 -18 46 -41 89 -30 58 -40 88 -37 112 5 41 -8 43 -17 3z"/>
<path d="M2346 2903 c-10 -42 -3 -60 55 -161 33 -59 50 -100 55 -138 7 -63 24
-62 24 2 0 34 -12 68 -55 150 -31 59 -59 123 -64 143 l-8 36 -7 -32z"/>
<path d="M3186 2848 c-25 -49 -21 -49 12 -1 11 16 11 16 2 -4 -12 -27 -13 -36
-1 -29 5 4 14 -6 19 -21 6 -16 11 -22 11 -15 1 7 4 11 9 9 4 -3 8 6 8 19 1 13
-2 22 -6 19 -10 -6 -22 24 -14 36 3 5 1 16 -4 24 -6 13 -14 4 -36 -37z m44
-43 c0 -5 -5 -3 -10 5 -5 8 -10 20 -10 25 0 6 5 3 10 -5 5 -8 10 -19 10 -25z"/>
<path d="M2235 2850 c9 -25 28 -63 42 -85 15 -22 30 -53 34 -70 l7 -30 1 35
c1 20 -6 46 -15 58 -8 12 -24 46 -34 75 -10 28 -19 46 -19 38 -1 -11 -5 -10
-16 5 -13 16 -13 13 0 -26z"/>
<path d="M2284 2844 c4 -40 33 -100 44 -90 3 3 -1 13 -8 21 -7 9 -19 37 -27
63 l-13 47 4 -41z"/>
<path d="M2825 2849 c-4 -6 -5 -12 -2 -15 2 -3 7 2 10 11 7 17 1 20 -8 4z"/>
<path d="M2856 2842 c-3 -5 1 -9 9 -9 8 0 12 4 9 9 -3 4 -7 8 -9 8 -2 0 -6 -4
-9 -8z"/>
<path d="M3141 2764 c0 -11 3 -14 6 -6 3 7 2 16 -1 19 -3 4 -6 -2 -5 -13z"/>
<path d="M2480 2762 c0 -5 7 -15 15 -22 8 -7 15 -8 15 -2 0 5 -7 15 -15 22 -8
7 -15 8 -15 2z"/>
<path d="M2337 2633 c5 -57 1 -79 -16 -118 -12 -26 -24 -46 -27 -42 -3 3 2 19
10 36 9 16 16 40 15 53 0 15 -5 8 -14 -20 -7 -24 -22 -53 -32 -65 -17 -20 -17
-20 1 -13 16 5 17 4 6 -9 -7 -8 -8 -15 -3 -15 13 0 48 50 61 89 14 39 16 140
3 160 -5 7 -6 -16 -4 -56z"/>
<path d="M2323 2625 c0 -22 2 -30 4 -17 2 12 2 30 0 40 -3 9 -5 -1 -4 -23z"/>
<path d="M2426 2600 c8 -56 14 -64 14 -19 0 19 -5 41 -10 49 -7 10 -8 1 -4
-30z"/>
<path d="M2560 2610 c-1 -8 -1 -23 0 -33 1 -9 -12 -52 -28 -95 -16 -42 -33
-94 -36 -114 -7 -39 8 -83 24 -73 5 3 12 0 16 -6 5 -8 3 -9 -6 -4 -8 5 -11 3
-8 -6 3 -9 19 -14 43 -14 31 0 43 -7 71 -39 19 -22 34 -34 34 -27 0 7 -26 39
-59 71 -88 86 -100 151 -47 245 28 49 39 92 26 100 -5 3 -10 -4 -11 -17 -1
-23 -1 -23 -9 2 -4 14 -9 18 -10 10z"/>
<path d="M2686 2607 c3 -10 9 -15 12 -12 3 3 0 11 -7 18 -10 9 -11 8 -5 -6z"/>
<path d="M2496 2570 c-5 -19 -12 -39 -16 -45 -19 -27 -41 -103 -42 -145 0 -53
17 -93 56 -129 24 -23 26 -23 23 -5 -1 10 -11 31 -20 45 -10 15 -20 44 -23 65
-3 30 -2 34 5 19 9 -18 10 -18 10 6 1 15 8 46 16 69 14 40 21 105 8 70 -4 -8
-12 -20 -19 -27 -18 -19 -37 -118 -29 -154 5 -22 4 -29 -4 -25 -22 14 -12 105
19 184 17 41 29 83 27 91 -2 9 -7 0 -11 -19z"/>
<path d="M3033 2578 c-18 -13 -33 -27 -33 -31 0 -9 56 28 65 43 9 15 3 12 -32
-12z"/>
<path d="M3073 2557 c-37 -41 -53 -71 -52 -97 1 -21 2 -20 11 10 5 19 24 50
41 67 17 18 28 35 26 38 -3 3 -15 -5 -26 -18z"/>
<path d="M2383 2545 c-7 -8 -10 -21 -7 -29 7 -18 -14 -59 -26 -51 -6 4 -7 -2
-3 -12 6 -15 4 -16 -8 -6 -13 10 -21 7 -44 -17 -29 -30 -29 -47 1 -36 9 3 14
13 11 20 -4 10 0 13 13 11 25 -5 56 35 71 87 12 45 10 52 -8 33z"/>
<path d="M2716 2535 c12 -54 32 -93 56 -109 33 -21 108 -47 108 -36 0 10 -74
70 -86 70 -5 0 5 -11 21 -25 17 -13 26 -24 20 -25 -21 0 -66 47 -95 100 -23
41 -29 47 -24 25z"/>
<path d="M2350 2535 c0 -5 5 -17 10 -25 5 -8 10 -10 10 -5 0 6 -5 17 -10 25
-5 8 -10 11 -10 5z"/>
<path d="M2438 2498 c-10 -23 -16 -44 -13 -46 6 -6 37 67 33 78 -2 5 -11 -9
-20 -32z"/>
<path d="M2100 2514 c0 -11 6 -28 13 -38 13 -18 14 -18 20 -2 4 10 2 25 -3 34
-9 14 -10 12 -6 -8 5 -22 4 -21 -9 5 -11 24 -14 26 -15 9z"/>
<path d="M2410 2493 c-23 -58 -23 -61 0 -20 12 21 20 43 18 48 -2 6 -10 -7
-18 -28z"/>
<path d="M3066 2498 c-24 -56 -20 -125 9 -173 30 -48 33 -39 5 15 -24 47 -26
100 -4 141 8 17 13 36 11 42 -3 7 -12 -5 -21 -25z"/>
<path d="M2961 2498 c-20 -32 -16 -189 6 -231 9 -18 38 -53 64 -80 27 -27 49
-53 49 -58 0 -5 5 -9 11 -9 6 0 2 15 -9 33 -11 17 -18 37 -15 44 4 12 -10 32
-62 83 -29 30 -30 32 -30 135 0 58 0 105 0 105 0 0 -7 -10 -14 -22z"/>
<path d="M2996 2494 c-10 -26 -5 -87 10 -124 13 -32 14 -32 7 -5 -3 17 -6 56
-6 88 -1 31 -2 57 -3 57 -1 0 -5 -7 -8 -16z"/>
<path d="M2610 2411 c0 -23 27 -76 46 -91 18 -14 18 -13 -1 8 -10 13 -19 37
-20 54 0 17 -6 33 -12 35 -7 3 -13 0 -13 -6z"/>
<path d="M3155 2370 c-3 -5 -1 -18 4 -27 9 -16 10 -14 11 10 0 28 -5 34 -15
17z"/>
<path d="M2890 2311 c0 -22 -4 -43 -10 -46 -18 -11 -10 -75 13 -113 13 -20 28
-50 32 -67 8 -26 9 -27 12 -8 2 12 -5 40 -16 62 -12 22 -21 43 -21 47 0 14 42
-48 50 -74 8 -25 8 -26 9 -4 1 13 -7 36 -17 50 -34 49 -35 57 -5 30 33 -31 53
-37 32 -10 -7 9 3 2 22 -16 19 -18 38 -29 42 -26 4 4 8 1 9 -7 0 -8 2 -18 3
-24 2 -5 3 -16 4 -22 2 -23 21 -14 21 10 0 30 -26 67 -82 116 -33 29 -51 56
-63 91 -20 60 -35 65 -35 11z"/>
<path d="M3061 2275 c0 -6 7 -26 15 -45 l14 -35 -5 35 c-5 30 -26 70 -24 45z"/>
<path d="M3136 2235 c4 -8 8 -15 10 -15 2 0 4 7 4 15 0 8 -4 15 -10 15 -5 0
-7 -7 -4 -15z"/>
<path d="M2570 2226 c0 -10 -7 -12 -22 -9 l-23 6 24 -26 c13 -15 27 -24 32
-22 4 3 11 0 15 -6 5 -8 3 -9 -6 -4 -9 6 -10 2 -4 -16 4 -13 11 -40 15 -59 l7
-35 3 35 c1 19 2 48 0 65 -2 29 -1 29 13 10 13 -17 15 -18 16 -3 0 18 -46 78
-61 78 -5 0 -9 -6 -9 -14z"/>
<path d="M3187 2198 c8 -44 13 -48 13 -10 0 17 -4 34 -10 37 -6 4 -7 -6 -3
-27z"/>
<path d="M3101 2203 c0 -4 4 -17 9 -28 8 -19 9 -19 9 2 1 12 -3 25 -9 28 -5 3
-10 3 -9 -2z"/>
<path d="M3142 2178 c-7 -7 -12 -26 -12 -44 0 -34 19 -98 27 -90 3 3 26 -12
51 -34 60 -51 70 -41 12 11 -25 22 -35 35 -23 29 23 -11 23 -10 -2 27 -14 21
-30 44 -36 51 -6 7 -8 24 -5 38 7 27 5 29 -12 12z"/>
<path d="M2980 2159 c0 -3 9 -23 20 -45 12 -22 18 -28 14 -14 -6 23 -34 71
-34 59z"/>
<path d="M3094 2070 c3 -13 0 -44 -6 -67 -9 -38 -8 -46 7 -63 12 -13 25 -18
37 -14 14 4 22 -3 33 -30 9 -20 17 -36 19 -36 7 0 -7 45 -18 59 -12 16 -16 61
-5 61 12 0 61 -64 76 -99 8 -18 16 -31 19 -28 10 10 -20 64 -60 107 -24 25
-49 63 -56 84 -8 25 -15 34 -20 26 -6 -9 -11 -8 -20 6 -10 17 -11 17 -6 -6z"/>
<path d="M2047 2069 c7 -7 15 -10 18 -7 3 3 -2 9 -12 12 -14 6 -15 5 -6 -5z"/>
<path d="M3045 2030 c-4 -17 -5 -34 -2 -36 2 -3 7 10 11 27 8 42 0 50 -9 9z"/>
<path d="M3242 2035 c6 -14 15 -25 20 -25 5 0 1 11 -8 25 -9 14 -18 25 -20 25
-2 0 2 -11 8 -25z"/>
<path d="M3011 2034 c0 -11 3 -14 6 -6 3 7 2 16 -1 19 -3 4 -6 -2 -5 -13z"/>
<path d="M3160 2032 c0 -17 91 -114 99 -106 3 3 -9 19 -28 34 -19 16 -42 41
-52 57 -11 15 -19 22 -19 15z"/>
<path d="M2004 1981 c7 -11 46 -35 46 -28 0 3 -12 12 -26 22 -15 9 -23 12 -20
6z"/>
<path d="M3041 1970 c-1 -8 7 -28 17 -45 18 -30 18 -30 -2 -40 -21 -10 -21
-10 -3 -45 l19 -35 -5 30 c-4 26 -3 27 8 12 7 -9 15 -17 19 -17 14 0 5 59 -14
83 -11 14 -24 36 -29 49 -6 12 -10 16 -10 8z"/>
<path d="M2020 1945 c0 -7 61 -47 66 -42 3 2 -11 14 -31 25 -19 12 -35 20 -35
17z"/>
<path d="M2020 1917 c0 -3 12 -12 26 -22 15 -9 23 -12 20 -6 -7 11 -46 35 -46
28z"/>
<path d="M2771 1904 c0 -11 3 -14 6 -6 3 7 2 16 -1 19 -3 4 -6 -2 -5 -13z"/>
<path d="M3140 1888 c0 -9 7 -22 17 -29 15 -13 15 -12 3 11 -17 34 -20 36 -20
18z"/>
<path d="M1849 1866 c13 -16 51 -41 51 -33 0 2 -15 14 -32 27 -21 15 -28 17
-19 6z"/>
<path d="M3007 1852 c3 -12 9 -25 14 -28 14 -8 11 10 -6 32 -13 18 -14 18 -8
-4z"/>
<path d="M3186 1822 c-5 -18 -5 -36 -2 -39 7 -7 19 43 13 59 -2 7 -7 -2 -11
-20z"/>
<path d="M3217 1829 c4 -13 8 -18 11 -10 2 7 -1 18 -6 23 -8 8 -9 4 -5 -13z"/>
<path d="M3124 1785 c0 -18 3 -32 8 -29 10 6 11 64 1 64 -5 0 -8 -16 -9 -35z"/>
<path d="M3090 1791 c0 -11 5 -23 10 -26 6 -4 10 5 10 19 0 14 -4 26 -10 26
-5 0 -10 -9 -10 -19z"/>
<path d="M1789 1751 c13 -12 28 -21 34 -21 12 0 11 0 -28 24 l-30 17 24 -20z"/>
<path d="M1073 1715 c15 -14 32 -25 38 -25 17 0 9 8 -28 29 l-38 22 28 -26z"/>
<path d="M3067 1724 l-29 -16 23 -24 c24 -25 59 -32 59 -11 -1 6 -6 24 -13 39
-12 26 -13 26 -40 12z"/>
<path d="M1669 1692 c14 -11 38 -27 55 -37 l31 -17 -24 20 c-14 11 -38 27 -55
37 l-31 17 24 -20z"/>
<path d="M1400 1636 c0 -3 15 -15 33 -27 23 -17 28 -18 18 -6 -14 18 -51 42
-51 33z"/>
<path d="M3117 1596 c3 -26 1 -46 -6 -50 -6 -4 -11 -12 -11 -18 0 -7 6 -6 15
2 16 14 21 95 6 104 -5 3 -6 -14 -4 -38z"/>
<path d="M866 1600 c4 -14 18 -47 33 -75 35 -68 37 -72 18 -56 -28 23 -19 -1
21 -54 21 -27 83 -88 138 -135 56 -47 133 -119 172 -160 39 -41 73 -72 76 -69
6 6 -187 196 -302 297 -40 35 -72 68 -72 75 0 6 21 -9 48 -34 26 -24 59 -53
73 -64 14 -11 -3 7 -37 40 -70 68 -90 96 -139 192 -20 37 -33 57 -29 43z m84
-161 c0 -6 -4 -7 -10 -4 -5 3 -10 11 -10 16 0 6 5 7 10 4 6 -3 10 -11 10 -16z"/>
<path d="M1060 1554 c0 -7 66 -34 82 -34 7 0 -7 9 -31 20 -47 22 -51 23 -51
14z"/>
<path d="M1515 1550 c3 -5 14 -10 23 -10 9 -1 28 -8 42 -16 l25 -15 -30 5
c-23 4 -18 0 20 -18 41 -20 46 -25 25 -26 -21 -1 -19 -3 13 -15 43 -15 57 -25
36 -25 -8 0 6 -11 30 -25 23 -14 46 -25 49 -25 11 0 -73 70 -92 76 -13 4 -15
8 -7 14 8 4 1 13 -21 23 -18 9 -26 17 -18 17 8 1 -5 12 -30 25 -47 25 -75 32
-65 15z"/>
<path d="M1070 1516 c15 -15 80 -40 80 -30 0 3 -41 24 -85 42 -5 2 -3 -3 5
-12z"/>
<path d="M810 1487 c0 -2 15 -16 33 -33 l32 -29 -29 33 c-28 30 -36 37 -36 29z"/>
<path d="M2520 1476 c0 -2 -6 -19 -14 -38 -13 -31 -13 -38 5 -77 16 -37 137
-166 147 -157 1 2 -7 21 -20 42 -12 21 -28 63 -35 94 l-13 55 4 -55 4 -55 -14
45 c-8 25 -12 58 -8 74 5 21 3 27 -6 21 -9 -5 -11 -25 -6 -64 4 -43 3 -52 -5
-37 -14 23 -17 83 -5 116 7 21 6 23 -5 12 -9 -8 -14 -33 -13 -64 0 -33 -2 -45
-7 -32 -11 28 -11 82 1 89 6 3 10 13 10 21 0 8 -4 14 -10 14 -5 0 -10 -2 -10
-4z"/>
<path d="M815 1450 c10 -11 20 -20 23 -20 3 0 -3 9 -13 20 -10 11 -20 20 -23
20 -3 0 3 -9 13 -20z"/>
<path d="M1379 1458 c7 -9 10 -21 7 -26 -3 -6 1 -15 9 -22 8 -7 15 -9 15 -5 0
5 9 0 20 -10 28 -25 25 -43 -2 -19 -13 10 2 -7 32 -39 30 -31 57 -57 59 -57 3
0 -12 17 -33 39 -30 31 -34 40 -22 44 9 4 24 4 34 2 9 -3 5 1 -11 8 -15 7 -48
33 -74 58 -26 24 -41 36 -34 27z"/>
<path d="M1114 1445 c11 -8 26 -15 33 -15 22 0 14 8 -19 19 -30 10 -31 9 -14
-4z"/>
<path d="M910 1413 c0 -5 15 -27 33 -49 20 -24 32 -48 31 -64 -2 -20 32 -59
170 -196 94 -93 191 -182 216 -197 68 -40 226 -98 246 -90 11 4 15 2 11 -4 -4
-7 8 -7 41 -1 26 5 63 6 82 4 26 -4 30 -3 15 4 l-20 9 20 1 c49 4 -34 18 -105
17 l-75 -1 80 -6 80 -6 -80 -2 c-44 -1 -87 3 -95 8 -13 9 -13 10 0 11 8 0 -3
6 -25 14 -39 13 -39 13 -10 15 25 2 22 4 -20 14 l-50 13 35 11 35 11 -45 -4
c-25 -2 -36 -2 -25 1 29 8 46 28 18 21 -13 -3 -26 -1 -29 4 -3 5 -16 9 -30 9
-14 0 -35 5 -46 11 -20 11 -20 13 -5 24 16 11 14 14 -13 25 -17 7 -66 50 -110
97 -77 81 -215 187 -231 178 -4 -3 -11 0 -15 6 -5 8 -3 9 6 4 9 -6 -52 75 -86
114 -2 2 -4 0 -4 -6z"/>
<path d="M1134 1406 c11 -9 24 -16 30 -16 12 0 7 5 -24 19 -24 11 -24 11 -6
-3z"/>
<path d="M900 1384 c0 -7 9 -22 20 -35 25 -31 26 -12 0 21 -11 14 -20 20 -20
14z"/>
<path d="M1070 1363 c0 -13 29 -38 35 -31 3 3 -4 13 -15 23 -11 10 -20 13 -20
8z"/>
<path d="M1495 1336 c17 -14 34 -26 39 -26 11 0 11 0 -34 29 l-35 23 30 -26z"/>
<path d="M1770 1356 c0 -2 7 -7 16 -10 8 -3 12 -2 9 4 -6 10 -25 14 -25 6z"/>
<path d="M2625 1330 c8 -46 58 -146 69 -140 4 3 19 -15 32 -40 30 -55 28 -47
-16 64 -19 48 -36 83 -38 78 -2 -6 4 -27 13 -48 8 -20 13 -39 11 -42 -7 -6
-56 95 -56 115 0 10 -5 25 -11 33 -7 11 -9 6 -4 -20z"/>
<path d="M2771 1332 c6 -18 15 -35 20 -38 5 -3 4 7 -3 23 -17 41 -30 53 -17
15z"/>
<path d="M1920 1325 c25 -13 50 -24 55 -24 6 0 -10 11 -35 24 -25 13 -49 24
-55 24 -5 0 10 -11 35 -24z"/>
<path d="M1940 1290 c8 -5 20 -10 25 -10 6 0 3 5 -5 10 -8 5 -19 10 -25 10 -5
0 -3 -5 5 -10z"/>
<path d="M1125 1280 c3 -5 16 -15 28 -21 22 -12 22 -12 3 10 -19 21 -43 30
-31 11z"/>
<path d="M2701 1284 c-1 -6 15 -42 34 -80 19 -38 34 -64 34 -59 0 15 -67 152
-68 139z"/>
<path d="M1345 1250 c1 -17 55 -71 55 -55 0 4 12 0 26 -10 39 -25 21 -3 -34
44 -39 32 -48 36 -47 21z m46 -37 c13 -16 12 -17 -3 -4 -17 13 -22 21 -14 21
2 0 10 -8 17 -17z"/>
<path d="M1987 1249 c7 -7 15 -10 18 -7 3 3 -2 9 -12 12 -14 6 -15 5 -6 -5z"/>
<path d="M2028 1253 c10 -4 9 -9 -5 -19 -16 -13 -15 -13 10 -2 20 8 24 14 15
20 -7 4 -17 7 -23 7 -5 0 -4 -3 3 -6z"/>
<path d="M1793 1185 c16 -40 24 -50 29 -37 4 9 7 12 7 6 1 -5 8 -19 16 -30 10
-13 9 -5 -4 26 -10 25 -21 52 -25 60 -3 8 -4 -1 -1 -20 l5 -35 -20 43 c-28 60
-32 52 -7 -13z"/>
<path d="M955 1190 c10 -11 20 -20 23 -20 3 0 -3 9 -13 20 -10 11 -20 20 -23
20 -3 0 3 -9 13 -20z"/>
<path d="M1860 1202 c0 -7 12 -35 26 -63 14 -28 23 -53 20 -56 -3 -3 -19 23
-36 58 -16 35 -27 53 -24 39 13 -49 56 -124 64 -110 6 9 10 8 19 -6 6 -11 10
-14 10 -9 0 16 -78 161 -79 147z"/>
<path d="M1939 1102 c29 -57 56 -99 64 -99 11 0 8 15 -14 69 -25 61 -59 122
-59 106 0 -3 14 -33 30 -66 17 -34 30 -67 29 -74 0 -7 -20 26 -45 75 -24 48
-46 87 -49 87 -3 0 17 -44 44 -98z"/>
<path d="M990 1167 c0 -2 15 -16 33 -33 l32 -29 -29 33 c-28 30 -36 37 -36 29z"/>
<path d="M1378 1144 c11 -16 40 -47 64 -69 l43 -40 -43 46 c-23 25 -40 48 -37
51 3 3 -6 13 -21 23 l-27 18 21 -29z"/>
<path d="M1250 1151 c0 -10 76 -81 87 -81 3 0 -2 9 -12 20 -10 11 -14 20 -10
20 5 0 -2 11 -15 25 -23 25 -50 33 -50 16z"/>
<path d="M1670 1130 c14 -11 34 -25 45 -31 14 -7 12 -4 -5 11 -14 11 -34 25
-45 31 -14 7 -12 4 5 -11z"/>
<path d="M2793 1135 c4 -10 12 -38 19 -62 6 -25 17 -47 23 -50 7 -2 19 -19 25
-36 33 -83 64 -147 72 -147 4 0 -1 19 -13 43 -13 23 -32 72 -44 110 -12 37
-25 64 -28 60 -4 -3 -7 3 -7 14 0 11 -7 26 -15 33 -8 7 -15 18 -15 26 0 7 -5
16 -12 20 -8 5 -9 2 -5 -11z"/>
<path d="M2020 1131 c0 -6 4 -13 10 -16 6 -3 7 1 4 9 -7 18 -14 21 -14 7z"/>
<path d="M1540 1111 l25 -22 -25 6 -25 7 25 -18 c14 -9 41 -32 60 -50 42 -39
147 -104 169 -104 9 0 -7 11 -35 24 -54 25 -127 83 -119 96 5 9 -29 41 -70 65
l-30 17 25 -21z m56 -43 l19 -23 -25 20 c-14 11 -27 21 -29 22 -2 2 0 3 6 3 5
0 18 -10 29 -22z"/>
<path d="M2065 1090 c9 -16 18 -30 21 -30 2 0 -2 14 -11 30 -9 17 -18 30 -21
30 -2 0 2 -13 11 -30z"/>
<path d="M2721 1115 c-2 -22 38 -110 49 -107 8 2 9 -11 5 -40 -4 -27 0 -59 9
-88 14 -41 13 -14 -1 35 -10 37 10 6 31 -47 13 -34 28 -54 40 -56 17 -4 18 0
12 29 -16 83 -24 112 -25 92 -2 -46 -21 -30 -43 37 -17 55 -24 67 -30 53 -6
-12 -7 -6 -4 17 3 19 2 28 -1 20 -4 -10 -12 -2 -24 25 -10 22 -18 36 -18 30z"/>
<path d="M1110 1106 c0 -6 99 -105 136 -136 16 -14 0 7 -36 46 -59 64 -100
101 -100 90z"/>
<path d="M1990 1106 c0 -11 62 -127 66 -123 2 2 -12 32 -31 68 -19 35 -35 60
-35 55z"/>
<path d="M1490 1056 c23 -25 60 -52 60 -43 0 2 -19 19 -42 37 -38 29 -40 30
-18 6z"/>
<path d="M2031 1075 c0 -5 6 -21 14 -35 8 -14 14 -20 14 -15 0 6 -6 21 -14 35
-8 14 -14 21 -14 15z"/>
<path d="M1145 1030 c10 -11 20 -20 23 -20 3 0 -3 9 -13 20 -10 11 -20 20 -23
20 -3 0 3 -9 13 -20z"/>
<path d="M2070 1043 c0 -5 18 -36 41 -68 44 -64 47 -89 3 -28 -36 50 -52 65
-30 30 9 -15 14 -31 12 -36 -3 -5 4 -21 16 -36 18 -24 22 -25 30 -10 8 14 15
11 51 -22 23 -21 53 -46 67 -56 25 -18 25 -18 -5 -1 -16 9 -40 26 -52 37 -13
11 -25 18 -28 15 -9 -9 58 -55 126 -85 35 -16 70 -37 78 -46 20 -25 32 -20 21
9 -17 45 -71 117 -129 173 -51 50 -47 54 7 7 12 -11 22 -15 22 -8 0 16 -62 57
-87 57 -22 1 -22 0 -4 -20 33 -37 37 -49 10 -35 l-24 13 25 -29 c14 -16 18
-23 10 -16 -24 21 -34 13 -14 -10 l19 -23 -22 19 c-12 10 -21 21 -20 25 2 7
-73 121 -80 121 -5 0 4 -15 30 -53 10 -16 17 -31 14 -34 -3 -3 -24 23 -46 57
-23 35 -41 59 -41 53z m55 -123 c10 -11 16 -20 13 -20 -3 0 -13 9 -23 20 -10
11 -16 20 -13 20 3 0 13 -9 23 -20z m61 -17 c-7 -7 -26 7 -26 19 0 6 6 6 15
-2 9 -7 13 -15 11 -17z"/>
<path d="M1350 1036 c0 -2 9 -6 20 -9 11 -3 18 -1 14 4 -5 9 -34 13 -34 5z"/>
<path d="M1666 1018 c7 -12 64 -40 73 -36 4 2 -12 12 -35 24 -24 11 -41 17
-38 12z"/>
<path d="M1375 980 c11 -5 29 -8 40 -8 16 0 15 2 -5 8 -34 11 -60 11 -35 0z"/>
<path d="M1562 974 c10 -10 20 -16 22 -13 3 3 -5 11 -17 18 -21 13 -21 12 -5
-5z"/>
<path d="M2811 974 c0 -11 3 -14 6 -6 3 7 2 16 -1 19 -3 4 -6 -2 -5 -13z"/>
<path d="M2030 966 c0 -2 8 -10 18 -17 15 -13 16 -12 3 4 -13 16 -21 21 -21
13z"/>
<path d="M2821 934 c0 -11 3 -14 6 -6 3 7 2 16 -1 19 -3 4 -6 -2 -5 -13z"/>
<path d="M1518 903 c12 -2 30 -2 40 0 9 3 -1 5 -23 4 -22 0 -30 -2 -17 -4z"/>
<path d="M1588 893 c7 -3 16 -2 19 1 4 3 -2 6 -13 5 -11 0 -14 -3 -6 -6z"/>
<path d="M1731 896 c10 -9 69 -36 69 -32 0 6 -55 36 -66 36 -4 0 -5 -2 -3 -4z"/>
<path d="M2346 853 c19 -25 44 -63 55 -85 11 -21 21 -38 24 -38 8 0 -15 51
-35 80 -11 16 -20 32 -20 37 0 11 -43 53 -53 53 -4 0 9 -21 29 -47z"/>
<path d="M1573 873 c9 -2 23 -2 30 0 6 3 -1 5 -18 5 -16 0 -22 -2 -12 -5z"/>
<path d="M1633 863 c9 -2 23 -2 30 0 6 3 -1 5 -18 5 -16 0 -22 -2 -12 -5z"/>
<path d="M2384 848 c8 -13 30 -47 48 -75 18 -29 37 -53 41 -53 5 0 1 12 -9 28
-9 15 -31 48 -48 74 -17 26 -35 48 -40 48 -5 0 -1 -10 8 -22z"/>
<path d="M1950 822 c0 -4 10 -13 23 -21 22 -14 22 -14 3 8 -20 22 -26 25 -26
13z"/>
<path d="M2800 821 c0 -6 4 -13 10 -16 6 -3 7 1 4 9 -7 18 -14 21 -14 7z"/>
<path d="M1643 794 c7 -8 87 -7 95 0 3 3 -19 6 -48 6 -29 0 -51 -3 -47 -6z"/>
<path d="M2009 787 c8 -9 16 -15 19 -12 3 3 12 -1 21 -8 14 -11 14 -10 2 6 -8
9 -16 15 -19 12 -3 -3 -12 1 -21 8 -14 11 -14 10 -2 -6z"/>
<path d="M1808 783 c6 -2 18 -2 25 0 6 3 1 5 -13 5 -14 0 -19 -2 -12 -5z"/>
<path d="M1775 760 c39 -9 90 -19 115 -23 l45 -5 -40 13 c-22 7 -33 14 -25 16
21 3 -87 17 -130 17 -27 0 -18 -4 35 -18z"/>
<path d="M2080 762 c7 -13 14 -21 17 -18 4 3 13 0 21 -7 13 -11 14 -9 1 11 -8
12 -16 17 -17 12 -2 -6 -10 -3 -19 7 -13 16 -13 16 -3 -5z"/>
</g>
</svg>
